<?xml version="1.0" standalone="no"?>
<!DOCTYPE svg PUBLIC "-//W3C//DTD SVG 20010904//EN"
 "http://www.w3.org/TR/2001/REC-SVG-20010904/DTD/svg10.dtd">
<svg version="1.0" xmlns="http://www.w3.org/2000/svg"
 width="500.000000pt" height="500.000000pt" viewBox="0 0 500.000000 500.000000"
 preserveAspectRatio="xMidYMid meet">

<g transform="translate(0.000000,500.000000) scale(0.100000,-0.100000)"
fill="#000000" stroke="none">
<path d="M2340 4628 c-1 -90 -50 -168 -106 -168 -50 0 -123 96 -124 161 0 36
-4 37 -59 27 l-48 -10 5 -72 c7 -108 -24 -156 -99 -156 -41 0 -103 62 -120
120 -13 44 -14 44 -85 15 l-32 -13 15 -46 c28 -83 -1 -167 -61 -182 -14 -3
-40 2 -60 11 -38 18 -96 80 -96 102 0 17 -15 16 -48 -2 -55 -29 -54 -28 -33
-76 12 -24 21 -64 21 -89 0 -117 -99 -139 -199 -45 l-45 43 -42 -30 -42 -30
29 -55 c16 -30 29 -67 29 -83 0 -38 -34 -78 -74 -86 -38 -7 -106 19 -143 55
-12 11 -24 21 -26 21 -2 0 -18 -18 -36 -40 l-32 -41 27 -32 c57 -68 68 -130
30 -173 -31 -37 -102 -39 -164 -4 -23 13 -43 22 -45 19 -2 -2 -16 -21 -31 -41
l-28 -37 35 -31 c64 -55 85 -135 49 -180 -25 -30 -111 -39 -165 -17 l-37 16
-20 -39 c-26 -52 -26 -55 14 -80 74 -45 98 -131 50 -175 -29 -27 -95 -41 -143
-30 -33 7 -38 0 -54 -66 -6 -24 -2 -29 41 -51 48 -24 92 -77 92 -108 0 -49
-77 -100 -150 -100 -35 0 -40 -3 -40 -24 0 -13 -3 -37 -6 -53 -6 -29 -4 -31
38 -41 157 -40 147 -187 -15 -217 l-38 -7 3 -51 3 -52 43 -7 c57 -10 104 -37
120 -71 25 -51 -31 -122 -111 -142 -19 -5 -26 -12 -23 -22 4 -8 9 -32 12 -54
l7 -39 52 0 c75 0 119 -31 123 -87 3 -37 -1 -46 -37 -82 -23 -23 -48 -41 -56
-41 -18 0 -19 -14 -1 -65 l14 -39 70 -1 c60 0 74 -3 96 -24 46 -43 26 -121
-43 -172 l-30 -22 26 -48 c23 -43 28 -47 46 -37 11 6 45 11 75 12 47 1 57 -2
78 -27 38 -45 28 -113 -25 -161 -27 -24 -27 -24 9 -73 l31 -42 42 19 c129 59
211 -28 142 -149 l-26 -44 23 -24 c36 -39 57 -47 76 -30 117 102 236 22 177
-120 -8 -19 -15 -37 -15 -39 0 -2 19 -18 42 -34 l42 -30 30 29 c64 60 130 70
165 25 23 -29 29 -103 11 -149 -9 -24 -7 -27 34 -47 l44 -21 43 46 c24 25 57
49 73 53 71 17 120 -41 113 -133 l-4 -52 45 -16 c59 -20 58 -20 71 14 28 67
115 118 152 88 32 -24 59 -82 59 -123 0 -35 4 -43 23 -48 45 -12 87 -7 93 12
29 90 59 123 114 124 54 2 110 -75 110 -151 0 -19 6 -21 55 -21 46 0 55 3 55
18 0 36 22 92 46 122 37 44 85 42 130 -5 18 -19 38 -51 45 -70 14 -37 20 -39
82 -29 l37 7 0 54 c0 57 15 96 49 127 45 40 129 -2 166 -84 l17 -38 49 16 c48
16 49 17 43 47 -35 155 63 235 165 136 21 -20 43 -45 49 -56 11 -20 11 -20 55
3 l44 23 -19 56 c-23 67 -17 114 17 149 13 13 36 24 50 24 36 0 98 -34 129
-70 l26 -31 40 28 c22 15 40 33 39 38 0 6 -11 28 -24 50 -48 77 -28 164 40
181 31 8 98 -16 140 -50 l30 -25 37 36 37 36 -34 38 c-46 51 -64 112 -44 148
24 42 64 56 119 42 25 -6 57 -21 72 -31 15 -11 31 -20 36 -20 5 0 22 18 37 40
l28 41 -37 30 c-41 35 -76 95 -76 134 0 14 11 37 25 50 19 20 34 25 75 25 28
0 67 -7 87 -15 19 -8 38 -15 42 -15 4 0 17 20 29 44 l21 45 -44 26 c-164 95
-105 258 76 211 30 -8 57 -12 60 -8 9 10 29 72 29 88 0 8 -9 14 -20 14 -60 0
-150 79 -150 131 0 58 55 89 160 89 75 0 72 -2 86 73 6 35 5 37 -21 37 -82 0
-175 62 -175 116 0 64 73 113 168 114 l52 0 0 58 0 57 -58 1 c-66 1 -126 26
-149 61 -40 60 25 140 135 165 55 13 56 15 46 79 l-6 35 -95 0 c-94 -1 -95 -1
-124 32 -16 18 -29 42 -29 53 0 53 77 126 152 143 l27 6 -16 48 c-9 26 -17 48
-18 50 -2 2 -29 -4 -60 -14 -210 -60 -273 117 -77 215 23 12 42 23 42 25 0 2
-12 24 -26 50 l-26 46 -44 -26 c-28 -17 -65 -28 -103 -31 -57 -5 -62 -4 -90
25 -17 17 -31 40 -31 52 0 49 48 121 109 162 l24 17 -34 44 -34 45 -46 -34
c-63 -46 -131 -64 -167 -43 -68 38 -62 123 14 208 l43 48 -37 36 c-21 21 -41
37 -45 37 -4 0 -23 -18 -42 -39 -43 -48 -90 -71 -143 -71 -96 0 -110 118 -27
226 l25 33 -47 32 c-45 31 -47 32 -57 13 -44 -79 -151 -141 -200 -115 -52 28
-61 117 -21 197 14 27 25 50 25 51 0 2 -22 14 -49 28 l-49 24 -11 -31 c-25
-71 -99 -138 -152 -138 -15 0 -37 11 -52 26 -40 40 -44 96 -12 201 6 19 2 25
-21 34 -72 27 -79 25 -92 -28 -15 -56 -62 -120 -100 -134 -40 -15 -78 6 -103
58 -18 37 -21 57 -17 113 l5 68 -51 5 c-56 5 -66 -2 -66 -44 0 -38 -27 -97
-57 -125 -28 -25 -71 -31 -104 -14 -28 16 -60 85 -66 146 l-6 54 -53 0 -54 0
0 -52z m440 -384 c315 -53 538 -194 569 -360 35 -182 -129 -365 -473 -530
-584 -280 -1392 -336 -1681 -116 -32 25 -59 57 -78 93 -177 347 472 855 1188
928 119 13 357 5 475 -15z m860 -602 c71 -35 105 -124 74 -193 -50 -112 -168
-141 -254 -63 -67 61 -76 142 -23 213 46 59 133 78 203 43z m325 -416 c117
-54 198 -186 252 -408 15 -59 18 -116 18 -303 -1 -201 -4 -244 -24 -338 -73
-345 -233 -667 -441 -890 -136 -145 -266 -230 -392 -258 -254 -55 -408 225
-370 674 56 671 412 1395 751 1528 66 26 145 24 206 -5z m-2814 -150 c49 -33
73 -86 67 -146 -19 -195 -308 -181 -308 14 0 94 62 156 155 156 37 0 60 -7 86
-24z m1492 -184 c72 -33 143 -94 187 -158 79 -114 93 -289 32 -418 -130 -278
-485 -342 -702 -126 -100 101 -145 237 -122 372 22 127 99 243 205 306 81 49
137 62 243 58 77 -3 102 -8 157 -34z m-1499 -288 c80 -20 245 -99 349 -167
262 -171 560 -474 745 -757 353 -540 298 -930 -128 -907 -114 6 -213 31 -337
85 -484 208 -878 658 -1020 1162 -24 82 -27 114 -28 235 0 138 0 141 33 207
36 74 83 120 147 142 54 19 163 19 239 0z m1746 -1414 c91 -65 78 -225 -23
-273 -81 -39 -169 -11 -215 68 -44 76 -12 177 70 219 46 23 125 17 168 -14z"/>
</g>
</svg>
