<?xml version="1.0" encoding="UTF-8"?>
<svg version="1.1" xmlns="http://www.w3.org/2000/svg" width="415" height="415">
<path d="M0 0 C1.34745804 -0.00018127 1.34745804 -0.00018127 2.72213745 -0.00036621 C17.54798545 0.0279497 31.61496215 1.14156538 46.125 4.375 C47.55465159 4.66684265 48.9843365 4.95852212 50.4140625 5.25 C67.76918308 9.14533769 84.56393826 15.81387274 100.125 24.375 C100.79805176 24.73787109 101.47110352 25.10074219 102.16455078 25.47460938 C128.99351488 40.04589065 152.47963443 61.52531358 170.125 86.375 C170.57601074 86.99665039 171.02702148 87.61830078 171.49169922 88.25878906 C193.60496382 118.91632556 208.12403579 158.35004903 208.328125 196.421875 C208.33382507 197.27315979 208.33952515 198.12444458 208.34539795 199.00152588 C208.35479769 200.79999573 208.3613618 202.59848241 208.36523438 204.39697266 C208.37482522 207.07617646 208.40584829 209.75457313 208.4375 212.43359375 C208.53361307 228.04814677 206.8298829 243.37913521 202.8125 258.5 C202.60085205 259.31581543 202.3892041 260.13163086 202.17114258 260.97216797 C194.56024085 289.63832894 182.14354511 315.45295721 163.125 338.375 C162.64675781 338.95330566 162.16851562 339.53161133 161.67578125 340.12744141 C152.35496236 351.35016261 142.59408358 361.30369266 131.125 370.375 C130.40828125 370.95894531 129.6915625 371.54289062 128.953125 372.14453125 C92.54246052 401.36888037 47.66582956 415.85587455 1.25 415.75 C0.35003296 415.74945618 -0.54993408 415.74891235 -1.47717285 415.74835205 C-58.17198942 415.59130618 -109.95565542 392.3058454 -149.875 352.375 C-186.3852265 314.95067357 -207.4582778 263.10622904 -207.08081055 210.92260742 C-207.06249816 208.31223756 -207.06030225 205.70222457 -207.06054688 203.09179688 C-207.00862329 176.80851116 -207.00862329 176.80851116 -203.875 165.75 C-203.69710937 165.08355469 -203.51921875 164.41710937 -203.3359375 163.73046875 C-202.85782961 161.94291612 -202.36707152 160.15875928 -201.875 158.375 C-201.72675781 157.76100342 -201.57851562 157.14700684 -201.42578125 156.5144043 C-193.08154756 124.10282636 -177.93962639 95.45063644 -155.875 70.375 C-155.4207666 69.85309082 -154.9665332 69.33118164 -154.49853516 68.79345703 C-152.00892067 65.93729722 -149.46891428 63.13660166 -146.875 60.375 C-146.30910156 59.76785156 -145.74320313 59.16070312 -145.16015625 58.53515625 C-140.1420035 53.32808481 -134.5449262 48.848867 -128.875 44.375 C-127.98167969 43.66472656 -127.08835937 42.95445313 -126.16796875 42.22265625 C-101.99528963 23.52686387 -75.22677786 11.44202228 -45.5 4.5625 C-44.65775879 4.3675293 -43.81551758 4.17255859 -42.94775391 3.97167969 C-28.62225761 0.84099694 -14.60580983 -0.03030286 0 0 Z M-106.75 146 C-107.801875 147.175625 -107.801875 147.175625 -108.875 148.375 C-109.720625 149.2 -110.56625 150.025 -111.4375 150.875 C-125.82970605 165.63623697 -129.85485296 185.70836674 -129.9140625 205.65087891 C-129.55269468 230.85176716 -124.47373656 251.41000293 -106.875 270.375 C-104.21707376 272.7893563 -104.21707376 272.7893563 -100.875 273.375 C-100.875 274.035 -100.875 274.695 -100.875 275.375 C-82.12987143 285.27675549 -63.93342383 290.82310362 -42.875 284.375 C-34.26152597 281.08359428 -25.76515509 276.54146265 -18.875 270.375 C-18.15183594 269.75496094 -17.42867188 269.13492188 -16.68359375 268.49609375 C-8.38969938 260.87581516 -2.64187205 251.30344939 0.125 240.375 C-0.95973412 239.0833649 -0.95973412 239.0833649 -3.5625 239.0625 C-7.65154449 239.44825891 -10.03765934 240.49562467 -12.875 243.375 C-15.92086473 247.58301858 -18.73051006 251.94868133 -20.94921875 256.65234375 C-22.16456595 258.91381259 -23.61108234 259.27955597 -25.875 260.375 C-26.205 261.365 -26.535 262.355 -26.875 263.375 C-28.52749487 264.07605843 -30.19867583 264.73300351 -31.875 265.375 C-33.07263694 266.15124617 -34.25914213 266.94478879 -35.4375 267.75 C-42.35712855 272.1796107 -50.69941147 274.75797445 -58.875 275.375 C-59.51179688 275.4265625 -60.14859375 275.478125 -60.8046875 275.53125 C-70.71599366 275.96691181 -80.76442359 273.76980956 -89.10546875 268.36328125 C-90.97373115 267.13119732 -90.97373115 267.13119732 -93.875 267.375 C-93.875 266.715 -93.875 266.055 -93.875 265.375 C-94.431875 265.16875 -94.98875 264.9625 -95.5625 264.75 C-98.13686982 263.21929362 -99.70633055 261.36294503 -101.53125 259.0078125 C-102.88385746 257.28206075 -102.88385746 257.28206075 -104.7734375 255.6640625 C-107.5681236 252.62003637 -109.19488339 249.31759596 -111 245.625 C-111.34675781 244.94695312 -111.69351563 244.26890625 -112.05078125 243.5703125 C-117.07212996 233.45065954 -117.13903261 225.15047818 -117.875 213.375 C-77.945 213.375 -38.015 213.375 3.125 213.375 C3.125 187.9660251 2.3530229 166.96958278 -15.875 148.375 C-41.22554553 125.45970373 -80.42468913 121.9638466 -106.75 146 Z M7.125 136.375 C9.93678273 141.76425023 13.33556582 146.27483532 17.22265625 150.9453125 C19.125 153.375 19.125 153.375 20.74609375 156.1796875 C21.42865234 157.26636719 21.42865234 157.26636719 22.125 158.375 C22.785 158.375 23.445 158.375 24.125 158.375 C24.36347656 158.90351563 24.60195312 159.43203125 24.84765625 159.9765625 C26.50284229 163.08446535 28.50909548 165.89835724 30.5625 168.75 C31.22403076 169.67256592 31.22403076 169.67256592 31.89892578 170.61376953 C35.00166332 174.90558014 38.21210739 179.09890907 41.5 183.25 C41.94561279 183.81501221 42.39122559 184.38002441 42.8503418 184.9621582 C44.82673223 187.46797024 46.80378394 189.97296365 48.79589844 192.46630859 C50.5038386 194.61209548 52.19078104 196.7730678 53.875 198.9375 C54.41302246 199.60442871 54.95104492 200.27135742 55.50537109 200.95849609 C59.08109905 205.6013941 59.08109905 205.6013941 59.26953125 208.921875 C57.67050796 212.34913311 55.45016278 215.16249143 53.0625 218.0625 C49.55035491 221.78977339 49.55035491 221.78977339 48.125 226.375 C47.465 226.375 46.805 226.375 46.125 226.375 C45.63 228.355 45.63 228.355 45.125 230.375 C44.465 230.375 43.805 230.375 43.125 230.375 C42.63 232.355 42.63 232.355 42.125 234.375 C41.465 234.375 40.805 234.375 40.125 234.375 C39.63 236.355 39.63 236.355 39.125 238.375 C38.465 238.375 37.805 238.375 37.125 238.375 C35.611904 240.05069411 35.611904 240.05069411 34.078125 242.25 C33.1809375 243.48169922 33.1809375 243.48169922 32.265625 244.73828125 C31.64171875 245.60839844 31.0178125 246.47851562 30.375 247.375 C29.15134055 249.06271674 27.92738488 250.75021876 26.703125 252.4375 C26.10822266 253.26378906 25.51332031 254.09007812 24.90039062 254.94140625 C22.71814167 257.93269579 20.4620805 260.86353696 18.18261719 263.78125 C16.94068945 265.33395139 16.94068945 265.33395139 17.125 267.375 C16.465 267.375 15.805 267.375 15.125 267.375 C14.63 269.355 14.63 269.355 14.125 271.375 C13.465 271.375 12.805 271.375 12.125 271.375 C11.63 273.355 11.63 273.355 11.125 275.375 C10.465 275.375 9.805 275.375 9.125 275.375 C7.76222914 277.16465547 7.76222914 277.16465547 6.5 279.375 C6.05398437 280.1175 5.60796875 280.86 5.1484375 281.625 C4.81070313 282.2025 4.47296875 282.78 4.125 283.375 C9.81511138 284.59430958 13.18635124 284.5821345 18.29296875 281.69140625 C21.21500028 279.59178019 23.06918081 277.33024009 25.125 274.375 C25.125 273.715 25.125 273.055 25.125 272.375 C25.785 272.375 26.445 272.375 27.125 272.375 C28.90143163 270.13746465 30.55737932 267.90277227 32.1875 265.5625 C32.64705078 264.91990234 33.10660156 264.27730469 33.58007812 263.61523438 C35.54418817 260.8320241 37.03767621 258.63697136 38.125 255.375 C38.785 255.375 39.445 255.375 40.125 255.375 C40.62 253.395 40.62 253.395 41.125 251.375 C41.785 251.375 42.445 251.375 43.125 251.375 C43.62 249.395 43.62 249.395 44.125 247.375 C44.785 247.375 45.445 247.375 46.125 247.375 C47.50826537 245.82938395 47.50826537 245.82938395 48.8828125 243.7890625 C49.42252686 243.02706543 49.96224121 242.26506836 50.51831055 241.47998047 C51.08976807 240.66158691 51.66122559 239.84319336 52.25 239 C53.42401723 237.34770351 54.59979207 235.69665443 55.77734375 234.046875 C56.63561768 232.84321289 56.63561768 232.84321289 57.51123047 231.61523438 C63.90712732 222.7364523 63.90712732 222.7364523 67.125 219.375 C67.785 219.375 68.445 219.375 69.125 219.375 C70.63378906 221.08398438 70.63378906 221.08398438 72.390625 223.46875 C73.03386719 224.335 73.67710937 225.20125 74.33984375 226.09375 C75.01144531 227.0115625 75.68304688 227.929375 76.375 228.875 C77.03113281 229.761875 77.68726563 230.64875 78.36328125 231.5625 C79.66490684 233.32215289 80.96377408 235.08384975 82.25976562 236.84765625 C84.47643194 239.85118108 86.72653451 242.82840602 88.98730469 245.79882812 C90.125 247.375 90.125 247.375 91.125 249.375 C91.785 249.375 92.445 249.375 93.125 249.375 C93.3943335 249.94847168 93.66366699 250.52194336 93.94116211 251.11279297 C99.30628713 261.36506117 110.09931625 278.31215387 120.6328125 283.64453125 C124.0157493 284.63608169 126.70687589 284.04522041 130.125 283.375 C128.72501318 279.36988305 126.83797975 276.41360198 124.25 273.0625 C123.45851563 272.02738281 122.66703125 270.99226562 121.8515625 269.92578125 C121.41875977 269.3632666 120.98595703 268.80075195 120.54003906 268.22119141 C117.87830539 264.7484464 115.25335106 261.24803184 112.625 257.75 C112.09664551 257.05092529 111.56829102 256.35185059 111.02392578 255.6315918 C110.53134277 254.97715088 110.03875977 254.32270996 109.53125 253.6484375 C109.09103516 253.06497559 108.65082031 252.48151367 108.19726562 251.88037109 C107.125 250.375 107.125 250.375 106.125 248.375 C105.465 248.375 104.805 248.375 104.125 248.375 C102.79166667 245.70833333 101.45833333 243.04166667 100.125 240.375 C99.465 240.375 98.805 240.375 98.125 240.375 C97.86460937 239.81296875 97.60421875 239.2509375 97.3359375 238.671875 C95.99787094 236.13386489 94.4511916 233.93632361 92.75 231.625 C92.05390625 230.66851562 91.3578125 229.71203125 90.640625 228.7265625 C88.76724052 226.19733913 86.8246901 223.73178936 84.859375 221.2734375 C84.30427246 220.56670898 83.74916992 219.85998047 83.17724609 219.13183594 C82.0701802 217.72471813 80.94827938 216.3291307 79.81103516 214.94628906 C78.39024599 213.12619903 77.13178912 211.45334245 76.125 209.375 C76.7265625 206.5859375 76.7265625 206.5859375 78.125 204.375 C78.62 202.89 78.62 202.89 79.125 201.375 C79.785 201.375 80.445 201.375 81.125 201.375 C81.455 200.055 81.785 198.735 82.125 197.375 C82.785 197.375 83.445 197.375 84.125 197.375 C84.455 196.055 84.785 194.735 85.125 193.375 C85.785 193.375 86.445 193.375 87.125 193.375 C88.11275903 191.96391567 89.09170949 190.54543767 90.01416016 189.09082031 C91.78601929 186.35397943 93.81113922 183.82179694 95.8125 181.25 C96.6892473 180.11622956 97.56553829 178.98210614 98.44140625 177.84765625 C99.10487061 176.98938232 99.10487061 176.98938232 99.78173828 176.11376953 C101.94655328 173.3115499 104.10566176 170.50542746 106.25 167.6875 C106.99507813 166.71425781 107.74015625 165.74101562 108.5078125 164.73828125 C110.31324427 162.57718089 110.31324427 162.57718089 110.125 160.375 C110.785 160.375 111.445 160.375 112.125 160.375 C115.08735695 156.74176311 115.08735695 156.74176311 116.125 152.375 C116.785 152.375 117.445 152.375 118.125 152.375 C118.455 151.055 118.785 149.735 119.125 148.375 C119.785 148.375 120.445 148.375 121.125 148.375 C122.94806208 145.93363646 122.94806208 145.93363646 124.75 142.9375 C125.69746094 141.42349609 125.69746094 141.42349609 126.6640625 139.87890625 C128.20899247 137.71420258 128.20899247 137.71420258 128.125 136.375 C121.52505501 135.83622898 117.53313747 136.43156643 112.125 140.375 C111.795 141.365 111.465 142.355 111.125 143.375 C110.465 143.375 109.805 143.375 109.125 143.375 C107.62678293 145.03491996 107.62678293 145.03491996 106.12109375 147.20703125 C105.54552734 148.00560547 104.96996094 148.80417969 104.37695312 149.62695312 C103.77818359 150.47193359 103.17941406 151.31691406 102.5625 152.1875 C101.95986328 153.02087891 101.35722656 153.85425781 100.73632812 154.71289062 C97.40887041 159.26660774 97.40887041 159.26660774 95.125 164.375 C94.465 164.375 93.805 164.375 93.125 164.375 C92.795 165.695 92.465 167.015 92.125 168.375 C91.465 168.375 90.805 168.375 90.125 168.375 C89.795 169.695 89.465 171.015 89.125 172.375 C88.465 172.375 87.805 172.375 87.125 172.375 C86.795 173.695 86.465 175.015 86.125 176.375 C85.465 176.375 84.805 176.375 84.125 176.375 C82.67589861 178.03645907 82.67589861 178.03645907 81.2265625 180.20703125 C80.66453125 181.00560547 80.1025 181.80417969 79.5234375 182.62695312 C78.93820312 183.47193359 78.35296875 184.31691406 77.75 185.1875 C76.60218022 186.84389618 75.44871379 188.49639671 74.2890625 190.14453125 C73.77811035 190.88292236 73.2671582 191.62131348 72.74072266 192.38208008 C71.05749298 194.45826681 69.3221225 195.86868234 67.125 197.375 C65.3505394 195.14863942 63.58037533 192.91908033 61.8125 190.6875 C61.31298828 190.06166016 60.81347656 189.43582031 60.29882812 188.79101562 C58.13721702 186.05679231 56.15905233 183.43318874 54.39453125 180.41796875 C53.97558594 179.74378906 53.55664062 179.06960937 53.125 178.375 C52.465 178.375 51.805 178.375 51.125 178.375 C50.85945313 177.80652344 50.59390625 177.23804688 50.3203125 176.65234375 C47.81405578 171.87735136 44.34456674 167.68646585 41.125 163.375 C40.5165625 162.55531738 39.908125 161.73563477 39.28125 160.89111328 C37.19602793 158.08759235 35.09926159 155.2930203 33 152.5 C32.31921387 151.58420166 31.63842773 150.66840332 30.93701172 149.72485352 C25.05560568 141.92508804 25.05560568 141.92508804 17.125 136.375 C15.41797265 136.30503986 13.70831997 136.29059846 12 136.3125 C11.08992187 136.32152344 10.17984375 136.33054688 9.2421875 136.33984375 C8.54351562 136.35144531 7.84484375 136.36304688 7.125 136.375 Z " fill="#FBFBFB" transform="translate(206.875,-0.375)"/>
<path d="M0 0 C0 0.66 0 1.32 0 2 C0.58136719 2.25265625 1.16273438 2.5053125 1.76171875 2.765625 C11.1921355 7.96634349 16.33034404 19.69107523 19.87890625 29.40625 C21.64869785 36.03987447 21.40190348 43.19568069 21 50 C20 51 20 51 18.17465878 51.12304783 C16.97033624 51.12166514 16.97033624 51.12166514 15.74168396 51.12025452 C14.36390778 51.12231651 14.36390778 51.12231651 12.95829773 51.12442017 C11.43484489 51.11902725 11.43484489 51.11902725 9.88061523 51.11352539 C8.81733002 51.11367142 7.7540448 51.11381744 6.65853882 51.1139679 C3.12520342 51.11326825 -0.40808 51.10547343 -3.94140625 51.09765625 C-6.38378368 51.09579225 -8.82616149 51.09436827 -11.26853943 51.09336853 C-17.71134464 51.08954189 -24.15412748 51.07971037 -30.59692383 51.06866455 C-37.16552426 51.05845356 -43.7341283 51.05387158 -50.30273438 51.04882812 C-63.20183249 51.03808823 -76.10091506 51.02120104 -89 51 C-89.01801265 49.0840191 -89.03084732 47.16798906 -89.04150391 45.25195312 C-89.04920807 44.18497192 -89.05691223 43.11799072 -89.06484985 42.01867676 C-88.75386524 27.54274531 -81.55936948 13.70517925 -71.69921875 3.4765625 C-51.30922386 -15.23147912 -22.34592856 -14.8972857 0 0 Z " fill="#F9F9F9" transform="translate(178,151)"/>
<path d="M0 0 C-1.28965176 1.37562854 -2.62689293 2.70766393 -4 4 C-4.66 4 -5.32 4 -6 4 C-6.33 4.66 -6.66 5.32 -7 6 C-6.01 6.495 -6.01 6.495 -5 7 C-8.75 10 -8.75 10 -11 10 C-11 10.66 -11 11.32 -11 12 C-12.65532623 13.01866229 -14.32260138 14.01810813 -16 15 C-16.33 15.66 -16.66 16.32 -17 17 C-17.66 17 -18.32 17 -19 17 C-19.33 17.66 -19.66 18.32 -20 19 C-20.7425 19.268125 -21.485 19.53625 -22.25 19.8125 C-25.18795753 20.88058626 -25.18795753 20.88058626 -27.5 23.5 C-30.01815568 26.01815568 -31.76175378 26.74068203 -35 28 C-35.495 29.485 -35.495 29.485 -36 31 C-36.66 31.28875 -37.32 31.5775 -38 31.875 C-40.29150599 32.8553382 -40.29150599 32.8553382 -40.75 35.625 C-40.8325 36.40875 -40.915 37.1925 -41 38 C-44 37 -44 37 -46 35 C-46.495 35.99 -46.495 35.99 -47 37 C-47.99 37 -48.98 37 -50 37 C-50 37.99 -50 38.98 -50 40 C-51.8125 42.1875 -51.8125 42.1875 -54 44 C-54.99 44 -55.98 44 -57 44 C-57.76117972 46.36811467 -58.10804045 47.6434665 -57.375 50.0625 C-57.25125 50.701875 -57.1275 51.34125 -57 52 C-58.3125 53.75 -58.3125 53.75 -60 55 C-60.66 55 -61.32 55 -62 55 C-62.28875 55.598125 -62.5775 56.19625 -62.875 56.8125 C-64 59 -64 59 -66 62 C-65.505 63.485 -65.505 63.485 -65 65 C-65.625 67.125 -65.625 67.125 -67 69 C-69.625 69.75 -69.625 69.75 -72 70 C-72.433125 71.4540625 -72.433125 71.4540625 -72.875 72.9375 C-74 76 -74 76 -76 77 C-75.505 77.99 -75.505 77.99 -75 79 C-75.66 79 -76.32 79 -77 79 C-77 79.66 -77 80.32 -77 81 C-76.34 81 -75.68 81 -75 81 C-75.33 82.32 -75.66 83.64 -76 85 C-76.61875 85.04125 -77.2375 85.0825 -77.875 85.125 C-78.57625 85.41375 -79.2775 85.7025 -80 86 C-81.15835673 88.97503122 -81.15835673 88.97503122 -82 92 C-82.99 92.495 -82.99 92.495 -84 93 C-84.66 93.99 -85.32 94.98 -86 96 C-86.99 96.495 -86.99 96.495 -88 97 C-88.144375 97.94875 -88.28875 98.8975 -88.4375 99.875 C-89.05760792 103.32004399 -89.67114334 103.67114334 -92 106 C-91.979375 106.7425 -91.95875 107.485 -91.9375 108.25 C-92.0125491 111.55216035 -93.26557834 113.39171328 -94.9765625 116.15234375 C-96.54780595 118.98897791 -97.23092089 121.85959363 -98 125 C-99.65 125 -101.3 125 -103 125 C-101.85147485 118.32195949 -100.23114229 112.15465759 -97.6875 105.875 C-97.34702637 105.03171143 -97.00655273 104.18842285 -96.65576172 103.31958008 C-90.63011219 88.8934662 -82.90936307 75.04886716 -74.3125 62 C-73.90273926 61.37697998 -73.49297852 60.75395996 -73.07080078 60.11206055 C-72.10520925 58.69990867 -71.06052188 57.34232384 -70 56 C-69.34 56 -68.68 56 -68 56 C-67.74734375 55.44054687 -67.4946875 54.88109375 -67.234375 54.3046875 C-62.99248933 46.38471109 -55.98926019 39.80997845 -49.6875 33.5 C-49.08905273 32.90074707 -48.49060547 32.30149414 -47.87402344 31.68408203 C-40.09151166 24 -40.09151166 24 -37 24 C-36.505 22.515 -36.505 22.515 -36 21 C-34.47216797 19.60888672 -34.47216797 19.60888672 -32.4921875 18.1796875 C-31.75943604 17.64811035 -31.02668457 17.1165332 -30.27172852 16.56884766 C-29.0853479 15.73039307 -29.0853479 15.73039307 -27.875 14.875 C-27.07054443 14.30185059 -26.26608887 13.72870117 -25.43725586 13.13818359 C-20.24218858 9.47775525 -14.97972824 5.94837822 -9.5625 2.625 C-8.6331665 2.04468018 -8.6331665 2.04468018 -7.68505859 1.45263672 C-3.36377228 -1.12125743 -3.36377228 -1.12125743 0 0 Z M-61 49 C-60.67 49.66 -60.34 50.32 -60 51 C-59.67 50.34 -59.34 49.68 -59 49 C-59.66 49 -60.32 49 -61 49 Z " fill="#CECECE" transform="translate(113,27)"/>
<path d="M0 0 C0.495 0.99 0.495 0.99 1 2 C4.465 1.505 4.465 1.505 8 1 C8 1.99 8 2.98 8 4 C8.66 4 9.32 4 10 4 C9.75 6.375 9.75 6.375 9 9 C7.125 10.375 7.125 10.375 5 11 C4.01 10.67 3.02 10.34 2 10 C2 9.01 2 8.02 2 7 C2.99 7 3.98 7 5 7 C5 6.01 5 5.02 5 4 C3.66082739 4.30903983 2.32911682 4.65023242 1 5 C-0.03125 5.268125 -1.0625 5.53625 -2.125 5.8125 C-5.06973203 6.71968003 -5.06973203 6.71968003 -6.3125 8.9375 C-6.539375 9.618125 -6.76625 10.29875 -7 11 C-7.33 11.99 -7.66 12.98 -8 14 C-8.99 11.525 -8.99 11.525 -10 9 C-10.33 9.66 -10.66 10.32 -11 11 C-11.5775 10.773125 -12.155 10.54625 -12.75 10.3125 C-15.10993795 9.72904407 -15.10993795 9.72904407 -17.125 11.4375 C-17.74375 11.953125 -18.3625 12.46875 -19 13 C-19.66 13 -20.32 13 -21 13 C-21.37125 14.423125 -21.37125 14.423125 -21.75 15.875 C-23 19 -23 19 -25.125 20.375 C-25.74375 20.58125 -26.3625 20.7875 -27 21 C-27.99 19.02 -27.99 19.02 -29 17 C-33.89513879 18.99801583 -38.46986352 21.26311884 -43 24 C-43.6379248 24.38446289 -44.27584961 24.76892578 -44.93310547 25.16503906 C-49.81175205 28.15975731 -54.50132513 31.37646386 -59.125 34.75 C-59.73988281 35.19730469 -60.35476562 35.64460938 -60.98828125 36.10546875 C-64.6354463 38.81870191 -67.82664663 41.72983245 -71 45 C-72.23796876 46.09706174 -73.48726791 47.18153438 -74.75 48.25 C-82.29403639 54.83337258 -88.84123126 61.74197735 -94.72607422 69.83447266 C-95.77393562 71.25605575 -96.88213445 72.6327807 -98 74 C-98.66 74 -99.32 74 -100 74 C-100.25523438 74.71542969 -100.51046875 75.43085937 -100.7734375 76.16796875 C-102.0876888 79.20246618 -103.69496016 81.63188911 -105.625 84.3125 C-106.57246094 85.63701172 -106.57246094 85.63701172 -107.5390625 86.98828125 C-108.02117187 87.65214844 -108.50328125 88.31601563 -109 89 C-109.66 88.67 -110.32 88.34 -111 88 C-103.71791917 67.58089899 -81.69492118 48.1731621 -65 35 C-64.10667969 34.28972656 -63.21335938 33.57945313 -62.29296875 32.84765625 C-43.30772221 18.16396207 -22.77006146 7.50205667 0 0 Z " fill="#F7F7F7" transform="translate(143,9)"/>
<path d="M0 0 C0.66 0.66 1.32 1.32 2 2 C1.34 3.65 0.68 5.3 0 7 C0.66 7.33 1.32 7.66 2 8 C1.34 9.32 0.68 10.64 0 12 C0.515625 12.53625 1.03125 13.0725 1.5625 13.625 C3.48015758 16.79330383 2.76666953 18.47332015 2 22 C2.33 22.66 2.66 23.32 3 24 C2.66015625 25.9453125 2.66015625 25.9453125 2.0625 28.125 C1.86785156 28.84945312 1.67320312 29.57390625 1.47265625 30.3203125 C1.31667969 30.87460938 1.16070313 31.42890625 1 32 C0.01 32 -0.98 32 -2 32 C-2 40.58 -2 49.16 -2 58 C-0.68 58.33 0.64 58.66 2 59 C1.98839844 59.73605469 1.97679687 60.47210938 1.96484375 61.23046875 C1.95582031 62.20628906 1.94679688 63.18210938 1.9375 64.1875 C1.92589844 65.15042969 1.91429687 66.11335938 1.90234375 67.10546875 C1.99572716 69.87335288 2.44641607 72.2940487 3 75 C3.25454128 78.41004506 3.4411694 81.81964049 3.62109375 85.234375 C3.74613281 86.14703125 3.87117187 87.0596875 4 88 C4.66 88.33 5.32 88.66 6 89 C6.34022786 90.99883869 6.67329097 92.99890722 7 95 C7.66 95.66 8.32 96.32 9 97 C9 99 9 101 9 103 C9.350625 103.70125 9.70125 104.4025 10.0625 105.125 C11.25862062 107.51724125 10.7396585 108.50688533 10 111 C4.0742178 99.08539537 1.54458296 86.49005977 -0.60546875 73.46411133 C-0.75886719 72.55556396 -0.91226562 71.6470166 -1.0703125 70.7109375 C-1.20195801 69.89931152 -1.33360352 69.08768555 -1.46923828 68.25146484 C-2.01949642 65.91729715 -2.8499004 64.09612222 -4 62 C-5.63240124 58.73519752 -5.14165959 55.13386371 -5.1328125 51.546875 C-5.13376923 50.69506653 -5.13472595 49.84325806 -5.13571167 48.96563721 C-5.13639361 47.1531975 -5.13453835 45.34075536 -5.13037109 43.52832031 C-5.12510183 40.80267553 -5.13027399 38.07720159 -5.13671875 35.3515625 C-5.15253112 5.65116317 -5.15253112 5.65116317 0 0 Z " fill="#F5F5F5" transform="translate(5,168)"/>
<path d="M0 0 C18.31456189 3.00033778 35.80649942 10.06395242 52 19 C52.69867188 19.37833984 53.39734375 19.75667969 54.1171875 20.14648438 C56.23756893 21.30427387 58.33966327 22.48941605 60.4375 23.6875 C61.08323975 24.04384521 61.72897949 24.40019043 62.39428711 24.76733398 C65.34419235 26.50974629 66.81968214 27.45130745 67.91015625 30.76953125 C67.93980469 31.50558594 67.96945312 32.24164063 68 33 C66.68 33.33 65.36 33.66 64 34 C64 33.34 64 32.68 64 32 C62.68 31.34 61.36 30.68 60 30 C60 29.34 60 28.68 60 28 C57.36095629 26.58622659 54.92879371 25.62759865 52 25 C52 24.34 52 23.68 52 23 C50.576875 22.87625 50.576875 22.87625 49.125 22.75 C48.09375 22.5025 47.0625 22.255 46 22 C45.30062468 20.68352881 44.63270867 19.34977849 44 18 C41.59117313 17.00156224 41.59117313 17.00156224 39 17 C38.01 17.66 37.02 18.32 36 19 C36 18.01 36 17.02 36 16 C35.01 16 34.02 16 33 16 C32 15 31 14 30 13 C29.01 13 28.02 13 27 13 C27 12.34 27 11.68 27 11 C26.484375 11.20625 25.96875 11.4125 25.4375 11.625 C21.96734329 12.15887026 19.29364209 11.07676761 16 10 C16 9.34 16 8.68 16 8 C15.401875 8.515625 14.80375 9.03125 14.1875 9.5625 C13.465625 10.036875 12.74375 10.51125 12 11 C9 10 9 10 7.75 8.0625 C5.27572333 5.14638821 2.64682127 4.82569538 -1 4 C-1.66 4.66 -2.32 5.32 -3 6 C-3.33 5.01 -3.66 4.02 -4 3 C-2.68 2.67 -1.36 2.34 0 2 C0 1.34 0 0.68 0 0 Z " fill="#E7E7E7" transform="translate(255,5)"/>
<path d="M0 0 C16.46532989 -0.38588298 32.74759453 -0.70949337 49.0625 1.875 C50.70968018 2.13555176 50.70968018 2.13555176 52.39013672 2.40136719 C57.91340697 3.3676046 57.91340697 3.3676046 60 4 C60.495 4.99 60.495 4.99 61 6 C56.25 9 56.25 9 54 9 C54 8.34 54 7.68 54 7 C53.34 7 52.68 7 52 7 C52 6.34 52 5.68 52 5 C51.01 5.33 50.02 5.66 49 6 C48.01 6 47.02 6 46 6 C45.4225 6.165 44.845 6.33 44.25 6.5 C41.15207198 7.18842845 38.16165371 7.06080103 35 7 C34.505 5.515 34.505 5.515 34 4 C32.02 3.67 30.04 3.34 28 3 C28 3.66 28 4.32 28 5 C22.84892829 5.09001873 18.04860407 5.12191202 13 4 C11.0003559 3.96227087 8.99945939 3.95350094 7 4 C6.67 4.66 6.34 5.32 6 6 C2.66666667 6 -0.66666667 6 -4 6 C-3.67 5.01 -3.34 4.02 -3 3 C-2.34 3 -1.68 3 -1 3 C-0.67 2.01 -0.34 1.02 0 0 Z M35 4 C35.33 4.66 35.66 5.32 36 6 C36.33 5.34 36.66 4.68 37 4 C36.34 4 35.68 4 35 4 Z " fill="#D2D2D2" transform="translate(190,2)"/>
<path d="M0 0 C0.33 0.66 0.66 1.32 1 2 C4.465 1.505 4.465 1.505 8 1 C8 1.99 8 2.98 8 4 C8.66 4 9.32 4 10 4 C9.75 6.375 9.75 6.375 9 9 C7.125 10.375 7.125 10.375 5 11 C4.01 10.67 3.02 10.34 2 10 C2 9.01 2 8.02 2 7 C2.99 7 3.98 7 5 7 C5 6.01 5 5.02 5 4 C3.66082739 4.30903983 2.32911682 4.65023242 1 5 C-0.03125 5.268125 -1.0625 5.53625 -2.125 5.8125 C-5.06973203 6.71968003 -5.06973203 6.71968003 -6.3125 8.9375 C-6.539375 9.618125 -6.76625 10.29875 -7 11 C-7.33 11.99 -7.66 12.98 -8 14 C-8.66 12.35 -9.32 10.7 -10 9 C-10.33 9.66 -10.66 10.32 -11 11 C-11.5775 10.773125 -12.155 10.54625 -12.75 10.3125 C-15.10993795 9.72904407 -15.10993795 9.72904407 -17.125 11.4375 C-17.74375 11.953125 -18.3625 12.46875 -19 13 C-19.66 13 -20.32 13 -21 13 C-21.2475 13.94875 -21.495 14.8975 -21.75 15.875 C-23 19 -23 19 -25.125 20.375 C-26.053125 20.684375 -26.053125 20.684375 -27 21 C-27.309375 19.88625 -27.61875 18.7725 -27.9375 17.625 C-28.82326483 14.2054845 -28.82326483 14.2054845 -30 12 C-9.5864882 3.27448586 -9.5864882 3.27448586 0 0 Z " fill="#E7E7E7" transform="translate(143,9)"/>
<path d="M0 0 C0.99 0.33 1.98 0.66 3 1 C3 1.99 3 2.98 3 4 C3.66 4.33 4.32 4.66 5 5 C5 5.66 5 6.32 5 7 C6.33333333 8.66666667 6.33333333 8.66666667 8 10 C8.66 10 9.32 10 10 10 C11.54571278 12.31856917 12.79618552 14.50638429 14 17 C15.32 16.67 16.64 16.34 18 16 C18.33 16.99 18.66 17.98 19 19 C18.34 19 17.68 19 17 19 C18.76351887 22.35072016 18.76351887 22.35072016 22.5625 23 C23.696875 23.33 24.83125 23.66 26 24 C27 27 27 27 26 30 C28.39068734 31.10636395 28.39068734 31.10636395 31 32 C31.66 31.67 32.32 31.34 33 31 C33.66 31.33 34.32 31.66 35 32 C35 33.32 35 34.64 35 36 C35.99 36.495 35.99 36.495 37 37 C37.639375 37.495 38.27875 37.99 38.9375 38.5 C41.02300735 40.17558237 41.02300735 40.17558237 44 41 C44 41.66 44 42.32 44 43 C39.22825077 43.35702296 37.06884764 42.8571705 33.4375 39.75 C32.58027344 39.01910156 31.72304687 38.28820312 30.83984375 37.53515625 C29.43412109 36.28025391 29.43412109 36.28025391 28 35 C27.2268042 34.31719971 27.2268042 34.31719971 26.43798828 33.62060547 C18.77788715 26.83238576 11.74218518 19.70714476 5 12 C4.43023437 11.40316406 3.86046875 10.80632812 3.2734375 10.19140625 C0.83853748 7.57286852 0.02316759 6.25021 -0.3125 2.625 C-0.209375 1.75875 -0.10625 0.8925 0 0 Z " fill="#F3F3F3" transform="translate(43,330)"/>
<path d="M0 0 C0.99 0.33 1.98 0.66 3 1 C3.66 0.67 4.32 0.34 5 0 C10.99918002 4.32461216 16.46865412 9.15618716 21.875 14.1875 C22.52927979 14.79352051 23.18355957 15.39954102 23.85766602 16.02392578 C26.86382786 18.84587794 29.69143679 21.55425566 32 25 C31.34 25 30.68 25 30 25 C30.66 26.32 31.32 27.64 32 29 C30.35 28.67 28.7 28.34 27 28 C27 26.68 27 25.36 27 24 C26.01 23.67 25.02 23.34 24 23 C23.690625 22.360625 23.38125 21.72125 23.0625 21.0625 C21.7657662 18.54531085 20.5778263 18.03113052 18 17 C18 16.34 18 15.68 18 15 C16.35 14.34 14.7 13.68 13 13 C13 12.34 13 11.68 13 11 C12.21625 10.7525 11.4325 10.505 10.625 10.25 C7.56360186 8.79219136 7.41293481 7.92006527 6 5 C4.02919843 4.25723969 4.02919843 4.25723969 2 4 C1.34 3.67 0.68 3.34 0 3 C0 2.01 0 1.02 0 0 Z " fill="#ECECEC" transform="translate(329,42)"/>
<path d="M0 0 C6.16837433 7.11735499 10.35392115 15.45373703 14.4375 23.875 C14.98712402 24.98149902 14.98712402 24.98149902 15.54785156 26.11035156 C16.04816895 27.16561035 16.04816895 27.16561035 16.55859375 28.2421875 C16.86079834 28.8697998 17.16300293 29.49741211 17.47436523 30.14404297 C18.12051023 32.42550801 17.74208623 33.78018889 17 36 C12.125 33.375 12.125 33.375 11 30 C11.66 30 12.32 30 13 30 C12.51789063 29.03578125 12.03578125 28.0715625 11.5390625 27.078125 C6 16 6 16 4.90625 13.625 C3.6933101 11.45007328 2.26627287 10.90650915 0 10 C0 9.01 0 8.02 0 7 C-0.66 6.67 -1.32 6.34 -2 6 C-2 4.35 -2 2.7 -2 1 C-1.34 0.67 -0.68 0.34 0 0 Z " fill="#F8F8F8" transform="translate(381,93)"/>
<path d="M0 0 C0.56332031 0.37511719 1.12664062 0.75023438 1.70703125 1.13671875 C1.04703125 1.13671875 0.38703125 1.13671875 -0.29296875 1.13671875 C-0.29296875 1.79671875 -0.29296875 2.45671875 -0.29296875 3.13671875 C-1.30359375 3.54921875 -2.31421875 3.96171875 -3.35546875 4.38671875 C-7.16874548 6.02535574 -10.7428669 7.9924936 -14.29296875 10.13671875 C-15.24659302 10.71015015 -15.24659302 10.71015015 -16.21948242 11.29516602 C-24.16600796 16.16517719 -32.68581982 21.52956982 -39.29296875 28.13671875 C-38.20630026 21.9562917 -33.32762277 18.32316275 -28.42724609 14.79248047 C-23.48395905 11.40986143 -18.40837769 8.25071172 -13.29296875 5.13671875 C-12.70386719 4.77143066 -12.11476563 4.40614258 -11.5078125 4.02978516 C-3.08186566 -1.16029354 -3.08186566 -1.16029354 0 0 Z " fill="#F1F1F1" transform="translate(114.29296875,22.86328125)"/>
<path d="M0 0 C0.99 0.33 1.98 0.66 3 1 C2.98839844 1.73605469 2.97679687 2.47210938 2.96484375 3.23046875 C2.95582031 4.20628906 2.94679688 5.18210938 2.9375 6.1875 C2.92589844 7.15042969 2.91429687 8.11335937 2.90234375 9.10546875 C2.99572716 11.87335288 3.44641607 14.2940487 4 17 C4.25454128 20.41004506 4.4411694 23.81964049 4.62109375 27.234375 C4.80865234 28.60335937 4.80865234 28.60335937 5 30 C5.66 30.33 6.32 30.66 7 31 C7.34022786 32.99883869 7.67329097 34.99890722 8 37 C8.66 37.66 9.32 38.32 10 39 C10 41 10 43 10 45 C10.350625 45.70125 10.70125 46.4025 11.0625 47.125 C12.25862062 49.51724125 11.7396585 50.50688533 11 53 C5.55986841 42.06186308 2.96493679 30.49448316 0.75 18.5625 C0.48703125 17.15931519 0.48703125 17.15931519 0.21875 15.7277832 C-0.66669572 10.74848991 -1.29958558 6.05891098 -1 1 C-0.67 0.67 -0.34 0.34 0 0 Z " fill="#D2D2D2" transform="translate(4,226)"/>
<path d="M0 0 C-0.72960937 0.29003906 -1.45921875 0.58007812 -2.2109375 0.87890625 C-3.90885399 1.56140209 -5.6027858 2.25407524 -7.2890625 2.96484375 C-13.41098754 5.51393963 -19.57116491 7.38668017 -26 9 C-26.66 8.34 -27.32 7.68 -28 7 C-28.99 7.66 -29.98 8.32 -31 9 C-31.66 7.68 -32.32 6.36 -33 5 C-26.05547983 3.11333845 -19.07541274 1.54978291 -12 0.25 C-11.27047119 0.11037842 -10.54094238 -0.02924316 -9.78930664 -0.1730957 C-6.27860479 -0.7974289 -3.38825065 -1.30588827 0 0 Z " fill="#CFCFCF" transform="translate(185,4)"/>
<path d="M0 0 C1.98 0.495 1.98 0.495 4 1 C4.9991932 4.10860106 4.83036989 5.88611292 4 9 C4.33 9.66 4.66 10.32 5 11 C4.66015625 12.9453125 4.66015625 12.9453125 4.0625 15.125 C3.86785156 15.84945312 3.67320312 16.57390625 3.47265625 17.3203125 C3.31667969 17.87460938 3.16070313 18.42890625 3 19 C1.68 19 0.36 19 -1 19 C-0.67 12.73 -0.34 6.46 0 0 Z " fill="#D2D2D2" transform="translate(3,181)"/>
<path d="M0 0 C0.99 0.66 1.98 1.32 3 2 C6.65670531 1.19351312 6.65670531 1.19351312 10 0 C8.625 1.5 8.625 1.5 7 3 C6.34 3 5.68 3 5 3 C4.7525 3.94875 4.505 4.8975 4.25 5.875 C3 9 3 9 0.875 10.375 C0.25625 10.58125 -0.3625 10.7875 -1 11 C-1.309375 9.88625 -1.61875 8.7725 -1.9375 7.625 C-2.82326483 4.2054845 -2.82326483 4.2054845 -4 2 C-2.68 1.34 -1.36 0.68 0 0 Z " fill="#CDCDCD" transform="translate(117,19)"/>
<path d="M0 0 C0 0.99 0 1.98 0 3 C0.66 3 1.32 3 2 3 C1.75 5.375 1.75 5.375 1 8 C-0.875 9.375 -0.875 9.375 -3 10 C-3.99 9.67 -4.98 9.34 -6 9 C-6 8.01 -6 7.02 -6 6 C-5.01 6 -4.02 6 -3 6 C-3 5.01 -3 4.02 -3 3 C-3.99 2.67 -4.98 2.34 -6 2 C-3 0 -3 0 0 0 Z " fill="#D9D9D9" transform="translate(151,10)"/>
<path d="M0 0 C2.6486859 3.19668988 4.93992341 6.39486597 7 10 C2.25 11.125 2.25 11.125 0 10 C0 9.01 0 8.02 0 7 C-0.66 6.67 -1.32 6.34 -2 6 C-2 4.35 -2 2.7 -2 1 C-1.34 0.67 -0.68 0.34 0 0 Z " fill="#EAEAEA" transform="translate(381,93)"/>
<path d="M0 0 C-1.58138636 3.16277272 -4.32596051 3.43093689 -7.5625 4.625 C-8.76003906 5.07101563 -9.95757812 5.51703125 -11.19140625 5.9765625 C-12.11824219 6.31429688 -13.04507813 6.65203125 -14 7 C-14.33 6.01 -14.66 5.02 -15 4 C-13.25705322 3.13153169 -11.50531337 2.28069373 -9.75 1.4375 C-8.77546875 0.96183594 -7.8009375 0.48617188 -6.796875 -0.00390625 C-3.90143703 -1.03510273 -2.80033839 -1.11346788 0 0 Z " fill="#E8E8E8" transform="translate(133,15)"/>
<path d="M0 0 C0.66 0.33 1.32 0.66 2 1 C1.21625 1.763125 0.4325 2.52625 -0.375 3.3125 C-3.07257717 5.90891805 -3.07257717 5.90891805 -5 9 C-5.66 9 -6.32 9 -7 9 C-7.33 9.66 -7.66 10.32 -8 11 C-9.32 10.34 -10.64 9.68 -12 9 C-8.04 6.03 -4.08 3.06 0 0 Z " fill="#C8C8C8" transform="translate(95,35)"/>
<path d="M0 0 C4.48525648 0.656379 8.66914029 1.70074209 13 3 C13 3.66 13 4.32 13 5 C11.68 5 10.36 5 9 5 C9 4.34 9 3.68 9 3 C8.401875 3.515625 7.80375 4.03125 7.1875 4.5625 C6.465625 5.036875 5.74375 5.51125 5 6 C4.01 5.67 3.02 5.34 2 5 C0.8125 2.4375 0.8125 2.4375 0 0 Z " fill="#D7D7D7" transform="translate(262,10)"/>
<path d="M0 0 C0.66 0.33 1.32 0.66 2 1 C-2.62 5.62 -7.24 10.24 -12 15 C-12 10.91678393 -10.42111745 9.89782894 -7.6875 6.9375 C-6.88699219 6.05964844 -6.08648437 5.18179688 -5.26171875 4.27734375 C-3 2 -3 2 0 0 Z " fill="#ADADAD" transform="translate(112,150)"/>
<path d="M0 0 C1.51056694 0.89914699 3.00825429 1.81996101 4.5 2.75 C5.3353125 3.26046875 6.170625 3.7709375 7.03125 4.296875 C7.6809375 4.85890625 8.330625 5.4209375 9 6 C9 7.32 9 8.64 9 10 C5.59260295 7.75421558 2.23521742 5.48862878 -1 3 C-0.67 2.01 -0.34 1.02 0 0 Z " fill="#F5F5F5" transform="translate(323,34)"/>
<path d="M0 0 C2.31 0 4.62 0 7 0 C7 0.33 7 0.66 7 1 C5.02 1 3.04 1 1 1 C1.33 1.66 1.66 2.32 2 3 C4.02463255 3.65213292 4.02463255 3.65213292 6 4 C6 4.66 6 5.32 6 6 C2.66666667 6 -0.66666667 6 -4 6 C-3.67 5.01 -3.34 4.02 -3 3 C-2.34 3 -1.68 3 -1 3 C-0.67 2.01 -0.34 1.02 0 0 Z " fill="#D7D7D7" transform="translate(190,2)"/>
<path d="M0 0 C4 1 4 1 4 1 Z M1 2 C0.690625 2.598125 0.38125 3.19625 0.0625 3.8125 C-1.10209704 6.08956772 -1.10209704 6.08956772 -2 9 C-2.66 7.35 -3.32 5.7 -4 4 C-4.33 4.66 -4.66 5.32 -5 6 C-5.99 5.67 -6.98 5.34 -8 5 C-8 4.34 -8 3.68 -8 3 C-2.375 0.875 -2.375 0.875 1 2 Z " fill="#CBCBCB" transform="translate(137,14)"/>
<path d="M0 0 C0.33 0 0.66 0 1 0 C0.95875 0.9075 0.9175 1.815 0.875 2.75 C0.77279857 5.91083821 0.77279857 5.91083821 2.0625 8.125 C3.25862062 10.51724125 2.7396585 11.50688533 2 14 C-2.23632385 5.96498906 -2.23632385 5.96498906 -1.25 1.9375 C-0.8375 1.298125 -0.425 0.65875 0 0 Z " fill="#D8D8D8" transform="translate(13,265)"/>
<path d="M0 0 C1.32 1.32 2.64 2.64 4 4 C2.1875 5.0625 2.1875 5.0625 0 6 C-0.99 5.67 -1.98 5.34 -3 5 C-2.625 3.0625 -2.625 3.0625 -2 1 C-1.34 0.67 -0.68 0.34 0 0 Z " fill="#DFDFDF" transform="translate(384,98)"/>
<path d="M0 0 C3.125 0.375 3.125 0.375 6 1 C5.01 1.495 5.01 1.495 4 2 C3.27840576 3.64363134 2.60648579 5.31050386 2 7 C1.67 6.34 1.34 5.68 1 5 C0.34 5 -0.32 5 -1 5 C-1.33 4.01 -1.66 3.02 -2 2 C-1.34 1.34 -0.68 0.68 0 0 Z " fill="#C8C8C8" transform="translate(74,51)"/>
<path d="M0 0 C0.99 0.33 1.98 0.66 3 1 C2.34 2.65 1.68 4.3 1 6 C-0.65 5.67 -2.3 5.34 -4 5 C-3.67 4.34 -3.34 3.68 -3 3 C-2.34 3 -1.68 3 -1 3 C-0.67 2.01 -0.34 1.02 0 0 Z " fill="#D9D9D9" transform="translate(45,90)"/>
<path d="M0 0 C2.97 0.495 2.97 0.495 6 1 C6.33 1.99 6.66 2.98 7 4 C6.34 4.66 5.68 5.32 5 6 C3.35 4.02 1.7 2.04 0 0 Z " fill="#E4E4E4" transform="translate(63,353)"/>
<path d="M0 0 C-0.33 1.98 -0.66 3.96 -1 6 C-1.66 5.67 -2.32 5.34 -3 5 C-3 4.34 -3 3.68 -3 3 C-3.99 2.67 -4.98 2.34 -6 2 C-3 0 -3 0 0 0 Z " fill="#CDCDCD" transform="translate(151,10)"/>
<path d="M0 0 C0.99 0.66 1.98 1.32 3 2 C3 2.66 3 3.32 3 4 C0.69 4 -1.62 4 -4 4 C-2.68 2.68 -1.36 1.36 0 0 Z " fill="#DADADA" transform="translate(229,5)"/>
<path d="M0 0 C0.66 0 1.32 0 2 0 C2.66 1.65 3.32 3.3 4 5 C1 5 1 5 -0.6875 3.5 C-1.120625 3.005 -1.55375 2.51 -2 2 C-1.34 1.34 -0.68 0.68 0 0 Z " fill="#E9E9E9" transform="translate(99,378)"/>
<path d="M0 0 C-4.07369424 2.03684712 -6.58937864 2.0257259 -11 1 C-11 0.67 -11 0.34 -11 0 C-3.57142857 -1.28571429 -3.57142857 -1.28571429 0 0 Z " fill="#D7D7D7" transform="translate(185,4)"/>
</svg>
