<?xml version="1.0" encoding="UTF-8"?>
<svg version="1.1" xmlns="http://www.w3.org/2000/svg" width="225" height="225">
<path d="M0 0 C1.6881633 -0.00856522 1.6881633 -0.00856522 3.41043091 -0.01730347 C4.63595169 -0.01842133 5.86147247 -0.01953918 7.12413025 -0.02069092 C8.42231689 -0.02565582 9.72050354 -0.03062073 11.05802917 -0.03573608 C14.61421004 -0.04882527 18.17037205 -0.05529881 21.72657323 -0.05974674 C23.95306794 -0.0626845 26.17955758 -0.06679073 28.40604973 -0.07125092 C35.3856682 -0.08491978 42.36527499 -0.09458811 49.34490591 -0.09845281 C57.37615199 -0.10292523 65.40722716 -0.12043759 73.43842131 -0.1494534 C79.66201622 -0.17115015 85.88556336 -0.18116141 92.10919565 -0.18249393 C95.81852104 -0.18353671 99.52768566 -0.18933068 103.2369709 -0.20731354 C107.38435658 -0.22702918 111.53139016 -0.22247361 115.67881775 -0.21600342 C116.89016891 -0.2252182 118.10152008 -0.23443298 119.34957886 -0.243927 C135.39460878 -0.16589809 148.3582498 4.56615662 160.06529236 15.65997314 C169.28484601 25.6504451 174.45260771 38.23128444 174.49479675 51.82368469 C174.5005069 52.93222809 174.50621704 54.04077148 174.51210022 55.1829071 C174.51377701 56.98538658 174.51377701 56.98538658 174.51548767 58.82427979 C174.52045258 60.10149902 174.52541748 61.37871826 174.53053284 62.69464111 C174.54360492 66.18884841 174.55009212 69.68303654 174.5545435 73.17726445 C174.55748387 75.3660827 174.56159055 77.55489582 174.56604767 79.74371147 C174.57971167 86.60853234 174.58938253 93.47334136 174.59324956 100.33817488 C174.59772159 108.23130098 174.61523419 116.12425316 174.64425015 124.01732641 C174.66596066 130.13819793 174.67595888 136.25902087 174.67729068 142.37993044 C174.67833244 146.02611684 174.68410404 149.67213953 174.70211029 153.31828499 C174.72185627 157.395909 174.71726497 161.47317547 174.71080017 165.55084229 C174.72001495 166.73832565 174.72922974 167.92580902 174.73872375 169.14927673 C174.6817987 180.68200548 172.91264741 191.47276813 166.35435486 201.14044189 C165.85033142 201.88938721 165.34630798 202.63833252 164.82701111 203.40997314 C156.14818738 215.39696026 143.93213254 222.61769533 129.35435486 225.14044189 C125.01420857 225.43021031 120.68441098 225.42403776 116.33580017 225.4151001 C115.04692902 225.42021103 113.75805786 225.42532196 112.43013 225.43058777 C108.91335206 225.44391234 105.39668202 225.44456355 101.87988377 225.44202447 C98.93300549 225.44094983 95.9861486 225.4458509 93.03927493 225.45062989 C86.07918093 225.46170347 79.1191409 225.46217527 72.15904236 225.45611572 C65.00631248 225.45008361 57.85377969 225.46237241 50.70108342 225.48368579 C44.53686634 225.50137059 38.37271159 225.50729218 32.20847011 225.50404805 C28.53720787 225.50224523 24.8660861 225.50476981 21.19484711 225.51876259 C17.09326641 225.53381194 12.99207977 225.52431107 8.89048767 225.51275635 C7.69320038 225.52040009 6.49591309 225.52804382 5.26234436 225.53591919 C-10.07829006 225.44089885 -24.35554768 221.09798992 -35.61830139 210.32403564 C-44.72852538 200.51167493 -50.74447846 188.07235909 -50.78608704 174.53276062 C-50.79179718 173.41573257 -50.79750732 172.29870453 -50.8033905 171.14782715 C-50.80450836 169.9316571 -50.80562622 168.71548706 -50.80677795 167.46246338 C-50.81174286 166.1740303 -50.81670776 164.88559723 -50.82182312 163.55812073 C-50.83491176 160.02879851 -50.84138574 156.4994953 -50.84583378 152.97015262 C-50.84877164 150.76040886 -50.85287789 148.55067021 -50.85733795 146.34092903 C-50.8710067 139.41363629 -50.88067508 132.48635531 -50.88453984 125.55905002 C-50.88901216 117.58836393 -50.90652411 109.61785003 -50.93554044 101.64721626 C-50.95723825 95.47033006 -50.9672485 89.29349201 -50.96858096 83.11656815 C-50.96962368 79.43518792 -50.9754161 75.7539697 -50.99340057 72.07262993 C-51.01311853 67.9563765 -51.00856024 63.84047779 -51.00209045 59.72418213 C-51.01130524 58.5221817 -51.02052002 57.32018127 -51.03001404 56.08175659 C-50.95204928 40.1677109 -46.26253186 26.01576924 -35.12611389 14.39434814 C-25.46760352 5.61803242 -13.13004416 0.0400449 0 0 Z " fill="#02342F" transform="translate(50.64564514160156,-0.14044189453125)"/>
<path d="M0 0 C0.66 0 1.32 0 2 0 C2.35191406 0.71285156 2.70382813 1.42570312 3.06640625 2.16015625 C5.86436411 7.58804839 8.53484507 11.86499011 13.0078125 16 C19.86367795 22.88275119 25.81958549 31.24809995 30 40 C30.56460938 41.13566406 31.12921875 42.27132812 31.7109375 43.44140625 C42.26964669 65.4545794 44.25461097 89.61660477 37 113 C32.21033994 126.52742659 22.98058747 142.37635515 10.83984375 150.43359375 C6.04527137 154.51559698 5.92408004 163.79558875 5.3125 169.75 C5.19895716 171.16594603 5.0909507 172.58242351 5 174 C3.0625 174.5625 3.0625 174.5625 1 175 C-0.93286899 173.06713101 -0.31931311 169.46541843 -0.4375 166.8125 C-0.65805705 158.43302626 -0.65805705 158.43302626 -4.55859375 151.3046875 C-5.17863281 150.83289063 -5.79867187 150.36109375 -6.4375 149.875 C-17.37678492 140.77874677 -24.71239357 130.68655952 -31 118 C-31.44214844 117.11570312 -31.88429688 116.23140625 -32.33984375 115.3203125 C-37.97757674 102.68328083 -38.73336998 88.61517319 -38 75 C-37.89558594 73.03933594 -37.89558594 73.03933594 -37.7890625 71.0390625 C-35.57407268 46.37884256 -22.73256649 24.81194992 -4.94824219 8.10888672 C-1.32774931 4.6657329 -1.32774931 4.6657329 0 0 Z " fill="#10A950" transform="translate(111,26)"/>
<path d="M0 0 C0.66 0 1.32 0 2 0 C2.35191406 0.71285156 2.70382813 1.42570312 3.06640625 2.16015625 C5.86436411 7.58804839 8.53484507 11.86499011 13.0078125 16 C19.86367795 22.88275119 25.81958549 31.24809995 30 40 C30.56460938 41.13566406 31.12921875 42.27132812 31.7109375 43.44140625 C42.26964669 65.4545794 44.25461097 89.61660477 37 113 C32.07948763 126.89699248 22.82159591 141.85859312 10.78125 150.61328125 C8.73418733 151.92328281 8.73418733 151.92328281 8.25 154.6875 C8.1675 155.450625 8.085 156.21375 8 157 C7.67 157 7.34 157 7 157 C6.87625 155.906875 6.7525 154.81375 6.625 153.6875 C6.24535199 149.92618198 6.24535199 149.92618198 4 147 C3.62109375 144.51171875 3.62109375 144.51171875 3.4375 141.6875 C3.24014613 138.79968936 3.00302751 136.01689412 2.49213505 133.16601372 C2.03071522 130.19759783 1.87677579 127.45644956 1.87974548 124.45706177 C1.87837082 123.38021622 1.87699615 122.30337067 1.87557983 121.19389343 C1.87917511 120.0279213 1.88277039 118.86194916 1.88647461 117.66064453 C1.88632858 116.42106491 1.88618256 115.18148529 1.8860321 113.90434265 C1.88660801 110.51841818 1.89161175 107.13255523 1.89860606 103.74664164 C1.90487153 100.2032378 1.90544592 96.65983308 1.90663147 93.11642456 C1.90973538 86.41237391 1.91793608 79.70833963 1.92798096 73.00429618 C1.93917132 65.36947991 1.94465991 57.73466284 1.94967639 50.0998404 C1.96011949 34.39988413 1.97770069 18.69994418 2 3 C1.34 3 0.68 3 0 3 C0 2.01 0 1.02 0 0 Z " fill="#11914F" transform="translate(111,26)"/>
<path d="M0 0 C0.66 0 1.32 0 2 0 C2.12117188 0.68707031 2.24234375 1.37414062 2.3671875 2.08203125 C2.53476563 2.98308594 2.70234375 3.88414062 2.875 4.8125 C3.03742188 5.70582031 3.19984375 6.59914062 3.3671875 7.51953125 C3.91188449 10.22727846 3.91188449 10.22727846 6 13 C7.05993089 20.93389448 5.2608766 29.18706822 4 37 C2.0625 37.5625 2.0625 37.5625 0 38 C-2.49251351 35.50748649 -1.54216208 29.10448898 -1.6875 25.75 C-1.73511475 24.66074219 -1.78272949 23.57148438 -1.83178711 22.44921875 C-2.09993586 14.70808141 -1.78871447 7.56877528 0 0 Z " fill="#B2C3C0" transform="translate(112,163)"/>
<path d="M0 0 C0.66 0 1.32 0 2 0 C2.33 1.65 2.66 3.3 3 5 C3.99 5 4.98 5 6 5 C6.66 7.64 7.32 10.28 8 13 C8.66 13 9.32 13 10 13 C10 13.99 10 14.98 10 16 C10.66 16 11.32 16 12 16 C15 19.46153846 15 19.46153846 15 22 C15.61875 22.0825 16.2375 22.165 16.875 22.25 C19.67505419 23.23825442 19.74113932 24.40359985 21 27 C22.93330603 28.09166275 22.93330603 28.09166275 25 29 C26.75 30.625 26.75 30.625 28 32 C28 31.01 28 30.02 28 29 C28.66 29 29.32 29 30 29 C29.67 31.64 29.34 34.28 29 37 C17.12480413 27.10400345 6.52006641 16.22559945 0 2 C0 1.34 0 0.68 0 0 Z " fill="#189958" transform="translate(81,144)"/>
<path d="M0 0 C0.33 0 0.66 0 1 0 C0.95359375 1.28390625 0.9071875 2.5678125 0.859375 3.890625 C0.15891938 24.77698326 0.15891938 24.77698326 7 44 C7.125 46.6875 7.125 46.6875 7 49 C-0.3249143 41.6750857 -1.12079193 26.0359854 -1.25317383 16.10522461 C-1.2454018 10.64387856 -1.04016724 5.385382 0 0 Z " fill="#1D9B5B" transform="translate(74,95)"/>
<path d="M0 0 C0.66 0.33 1.32 0.66 2 1 C2.05895136 5.24993992 2.0939116 9.49977216 2.125 13.75 C2.14175781 14.93722656 2.15851563 16.12445313 2.17578125 17.34765625 C2.28503631 37.34133225 2.28503631 37.34133225 -1.57373047 41.83105469 C-2.04439941 42.21680664 -2.51506836 42.60255859 -3 43 C-2.52890228 38.76012054 -1.94235535 34.68411936 -0.96875 30.53125 C0.29540942 24.30707656 0.22065372 18.2028618 0.125 11.875 C0.11597656 10.72773437 0.10695312 9.58046875 0.09765625 8.3984375 C0.07432538 5.59873252 0.04159232 2.79948305 0 0 Z " fill="#003C25" transform="translate(151,95)"/>
<path d="M0 0 C0 3.86695678 -1.41909971 6.5088452 -3 10 C-3.66 10 -4.32 10 -5 10 C-5.12375 10.7425 -5.2475 11.485 -5.375 12.25 C-5.96646509 14.85244639 -6.81696152 16.63392305 -8 19 C-8.4640625 20.794375 -8.4640625 20.794375 -8.9375 22.625 C-10 26 -10 26 -13 28 C-11.47981963 21.41255175 -8.95141523 15.5170085 -5.9375 9.5 C-5.40866211 8.44039062 -5.40866211 8.44039062 -4.86914062 7.359375 C-3.44883254 4.57805062 -2.22219949 2.22219949 0 0 Z " fill="#199B58" transform="translate(90,53)"/>
<path d="M0 0 C0.33 0.99 0.66 1.98 1 3 C5.12973628 2.43260132 5.12973628 2.43260132 9 1 C9 1.66 9 2.32 9 3 C9.66 3.33 10.32 3.66 11 4 C10.030625 4.721875 9.06125 5.44375 8.0625 6.1875 C5.70086494 8.13237593 5.06587669 8.7882535 4.125 11.8125 C4.08375 12.534375 4.0425 13.25625 4 14 C3.67 14 3.34 14 3 14 C2.87625 12.906875 2.7525 11.81375 2.625 10.6875 C2.24535199 6.92618198 2.24535199 6.92618198 0 4 C0 2.68 0 1.36 0 0 Z " fill="#258A5B" transform="translate(115,169)"/>
<path d="M0 0 C1.65 0 3.3 0 5 0 C5.5878125 1.8253125 5.5878125 1.8253125 6.1875 3.6875 C7.68950202 7.7623093 9.84181437 10.00803466 13 13 C13.6484375 15.140625 13.6484375 15.140625 14 17 C8.71594319 13.08148596 5.26587043 9.24873583 3 3 C3 2.34 3 1.68 3 1 C2.34 1 1.68 1 1 1 C0.67 2.32 0.34 3.64 0 5 C0 3.35 0 1.7 0 0 Z " fill="#004128" transform="translate(110,25)"/>
<path d="M0 0 C7.24241364 3.08473174 12.3450595 7.57681936 18 13 C14.34951466 13 13.79121319 12.23297055 11 10 C9.9275 9.319375 8.855 8.63875 7.75 7.9375 C6.8425 7.298125 5.935 6.65875 5 6 C5 5.34 5 4.68 5 4 C2.525 3.01 2.525 3.01 0 2 C0 1.34 0 0.68 0 0 Z " fill="#092523" transform="translate(195,5)"/>
<path d="M0 0 C4.44751242 2.20014946 8.62951501 4.27472711 12 8 C12 7.01 12 6.02 12 5 C12.66 5 13.32 5 14 5 C13.67 7.64 13.34 10.28 13 13 C8.11950075 9.0580583 3.9419417 4.88049925 0 0 Z " fill="#29975D" transform="translate(97,168)"/>
<path d="M0 0 C0.66 0 1.32 0 2 0 C2.66 3.63 3.32 7.26 4 11 C2.68 11 1.36 11 0 11 C-0.33 12.65 -0.66 14.3 -1 16 C-2.22602512 12.32192463 -1.70295577 10.11756073 -1.0625 6.3125 C-0.86785156 5.13300781 -0.67320313 3.95351562 -0.47265625 2.73828125 C-0.31667969 1.83464844 -0.16070312 0.93101562 0 0 Z " fill="#A2C9B3" transform="translate(112,163)"/>
<path d="M0 0 C0.66 0 1.32 0 2 0 C2.99 2.97 3.98 5.94 5 9 C5.66 9 6.32 9 7 9 C7.66 11.64 8.32 14.28 9 17 C8.34 17.33 7.68 17.66 7 18 C5.82887054 15.37690901 4.66294036 12.75171858 3.5 10.125 C3.16613281 9.37863281 2.83226562 8.63226563 2.48828125 7.86328125 C2.17246094 7.14785156 1.85664063 6.43242188 1.53125 5.6953125 C1.23798828 5.03547363 0.94472656 4.37563477 0.64257812 3.69580078 C0 2 0 2 0 0 Z " fill="#004129" transform="translate(140,64)"/>
<path d="M0 0 C0.66 0.33 1.32 0.66 2 1 C-0.35406142 5.9335117 -2.86384711 10.51978158 -6 15 C-6.6875 13.1875 -6.6875 13.1875 -7 11 C-5.6875 9.5625 -5.6875 9.5625 -4 8 C-3.29788106 6.34795544 -2.63028587 4.68076231 -2 3 C-1.34 2.01 -0.68 1.02 0 0 Z " fill="#188351" transform="translate(143,145)"/>
<path d="M0 0 C-0.598125 0.268125 -1.19625 0.53625 -1.8125 0.8125 C-4.04254963 1.87102051 -4.04254963 1.87102051 -5.5 3.625 C-8.08579693 5.99531386 -11.62981494 5 -15 5 C-15 4.34 -15 3.68 -15 3 C-9.89665983 1.094753 -5.53657294 -0.42589023 0 0 Z " fill="#052422" transform="translate(46,1)"/>
<path d="M0 0 C0.33 0 0.66 0 1 0 C1.21203451 5.83094895 0.96947414 11.44413776 -1 17 C-1.66 17.33 -2.32 17.66 -3 18 C-2.32418477 11.91766294 -1.26361972 5.98685848 0 0 Z " fill="#024A2C" transform="translate(151,120)"/>
<path d="M0 0 C1.89693861 0.28438952 3.79252027 0.57783792 5.6875 0.875 C6.74324219 1.03742187 7.79898438 1.19984375 8.88671875 1.3671875 C11.79794914 1.95893069 14.28955607 2.8031806 17 4 C13.67846257 5.10717914 11.36699184 4.9099978 8 4 C7.67 3.67 7.34 3.34 7 3 C5.00041636 2.95919217 2.99954746 2.95745644 1 3 C0.67 2.01 0.34 1.02 0 0 Z " fill="#03211E" transform="translate(177,0)"/>
<path d="M0 0 C5.67276511 -0.29341888 8.99067246 -0.00559652 14 3 C14 3.33 14 3.66 14 4 C9.03083364 3.48594831 4.70973649 2.76615118 0 1 C0 0.67 0 0.34 0 0 Z " fill="#062523" transform="translate(31,220)"/>
<path d="M0 0 C0.66 0.66 1.32 1.32 2 2 C2.99 1.34 3.98 0.68 5 0 C5 1.98 5 3.96 5 6 C3.0625 6.5625 3.0625 6.5625 1 7 C0 6 0 6 -0.0625 2.9375 C-0.041875 1.968125 -0.02125 0.99875 0 0 Z " fill="#668581" transform="translate(111,194)"/>
<path d="M0 0 C0.66 0.33 1.32 0.66 2 1 C-0.31 4.3 -2.62 7.6 -5 11 C-5.66 10.67 -6.32 10.34 -7 10 C-3.535 5.05 -3.535 5.05 0 0 Z " fill="#014129" transform="translate(141,153)"/>
<path d="M0 0 C0.33 0 0.66 0 1 0 C2.58255197 4.32564205 3.45144652 8.428721 4 13 C1.96180154 10.96180154 1.32158941 9.70582202 0.3125 7.0625 C0.04050781 6.37285156 -0.23148437 5.68320313 -0.51171875 4.97265625 C-1 3 -1 3 0 0 Z " fill="#179455" transform="translate(77,131)"/>
<path d="M0 0 C0.99 0.33 1.98 0.66 3 1 C3.94921875 3.28515625 3.94921875 3.28515625 4.6875 6.0625 C4.93886719 6.98160156 5.19023438 7.90070313 5.44921875 8.84765625 C5.63097656 9.55792969 5.81273438 10.26820313 6 11 C3.12878998 8.30572729 1.6117451 5.60723903 0 2 C0 1.34 0 0.68 0 0 Z " fill="#003E26" transform="translate(74,133)"/>
<path d="M0 0 C0.66 0 1.32 0 2 0 C1.71640113 1.4391134 1.42278601 2.87625518 1.125 4.3125 C0.88136719 5.51326172 0.88136719 5.51326172 0.6328125 6.73828125 C0 9 0 9 -2 12 C-1.85904936 10.3745692 -1.71207913 8.74965949 -1.5625 7.125 C-1.48128906 6.22007813 -1.40007812 5.31515625 -1.31640625 4.3828125 C-1 2 -1 2 0 0 Z " fill="#003F26" transform="translate(77,73)"/>
<path d="M0 0 C0 3.19219704 -0.23605791 4.39608549 -2 7 C-4.625 8.25 -4.625 8.25 -7 9 C-5.625 6.5 -5.625 6.5 -4 4 C-3.34 4 -2.68 4 -2 4 C-1.34 2.68 -0.68 1.36 0 0 Z " fill="#02482C" transform="translate(133,164)"/>
<path d="M0 0 C0.66 0.33 1.32 0.66 2 1 C-0.36944013 3.61885488 -2.83733102 5.41866551 -6 7 C-6.99 6.67 -7.98 6.34 -9 6 C-6.03 4.02 -3.06 2.04 0 0 Z " fill="#092625" transform="translate(27,6)"/>
<path d="M0 0 C0.66 0 1.32 0 2 0 C2.1875 2.8125 2.1875 2.8125 2 6 C1.01 6.99 0.02 7.98 -1 9 C-0.67 6.03 -0.34 3.06 0 0 Z " fill="#7ABF94" transform="translate(112,163)"/>
<path d="M0 0 C0.66 0 1.32 0 2 0 C2 3.63 2 7.26 2 11 C1.67 11 1.34 11 1 11 C0.855625 9.906875 0.71125 8.81375 0.5625 7.6875 C0.11711896 4.06877013 0.11711896 4.06877013 -1 1 C-0.67 0.67 -0.34 0.34 0 0 Z " fill="#18A055" transform="translate(111,29)"/>
<path d="M0 0 C0.33 0 0.66 0 1 0 C1.1875 2.875 1.1875 2.875 1 6 C0.01 6.66 -0.98 7.32 -2 8 C-1.125 1.125 -1.125 1.125 0 0 Z " fill="#003B26" transform="translate(109,25)"/>
</svg>
