<?xml version="1.0" encoding="UTF-8"?>
<svg version="1.1" xmlns="http://www.w3.org/2000/svg" width="500" height="500">
<path d="M0 0 C3.66351298 0.02149118 7.3250702 0.00003476 10.98852539 -0.02539062 C26.10314487 -0.04321125 40.32618567 1.36703296 55.09985352 4.52148438 C56.87477173 4.87460693 56.87477173 4.87460693 58.68554688 5.23486328 C92.4221898 12.18767997 124.75896513 27.66826442 152.09985352 48.52148438 C152.77790039 49.0190625 153.45594727 49.51664063 154.15454102 50.02929688 C165.17808627 58.13093857 176.31203964 66.77914588 185.15844727 77.26757812 C187.08272658 79.50160059 189.08227967 81.65203581 191.10131836 83.80029297 C196.6318138 89.70688467 201.49051488 95.85809078 206.09985352 102.52148438 C206.69411133 103.35421875 207.28836914 104.18695313 207.90063477 105.04492188 C219.48136922 121.32471266 229.87452942 138.44204677 236.31811523 157.41455078 C237.27626707 159.99695252 238.39771343 162.49213742 239.50610352 165.01367188 C242.25737915 171.55907009 244.06364286 178.23088639 245.73022461 185.10986328 C246.22003639 187.12664997 246.7270885 189.13849475 247.23657227 191.15039062 C248.26321687 195.25887342 249.19755776 199.38409716 250.09985352 203.52148438 C250.24927399 204.1852005 250.39869446 204.84891663 250.55264282 205.53274536 C253.51620043 219.06921666 253.5929442 232.58520224 253.54589844 246.39624023 C253.53740662 250.1852899 253.56622185 253.97281753 253.59790039 257.76171875 C253.64265093 273.10065277 252.38100103 287.53832052 249.09985352 302.52148438 C248.82810303 303.8123999 248.55635254 305.10331543 248.27636719 306.43334961 C247.57110042 309.60785702 246.8002197 312.75125237 245.97485352 315.89648438 C245.68408936 317.00805908 245.3933252 318.11963379 245.09375 319.26489258 C237.3028922 347.81254781 223.7387367 374.18991002 206.24926758 397.93847656 C205.21224325 399.36669783 204.21222893 400.821615 203.21704102 402.27929688 C195.78470206 413.0577971 186.35657476 422.31175156 177.09985352 431.52148438 C176.39344727 432.25109375 175.68704102 432.98070312 174.95922852 433.73242188 C169.97594054 438.84490621 164.81820074 443.26384704 159.09985352 447.52148438 C157.8995409 448.44845509 156.70041948 449.37696938 155.50219727 450.30664062 C146.7191482 457.07627447 137.77891366 463.11488635 128.09985352 468.52148438 C127.05933838 469.11243896 127.05933838 469.11243896 125.99780273 469.71533203 C108.1081039 479.8105479 89.30014244 487.3252147 69.53735352 492.89648438 C68.45276855 493.20602051 67.36818359 493.51555664 66.25073242 493.83447266 C46.36800474 499.17623105 26.75801761 501.18589704 6.19970703 501.04296875 C2.53619405 501.02147757 -1.12536316 501.04293399 -4.78881836 501.06835938 C-19.90343783 501.08618 -34.12647864 499.67593579 -48.90014648 496.52148438 C-50.08342529 496.28606934 -51.2667041 496.0506543 -52.48583984 495.80810547 C-86.22248277 488.85528878 -118.5592581 473.37470433 -145.90014648 452.52148438 C-146.57819336 452.02390625 -147.25624023 451.52632813 -147.95483398 451.01367188 C-158.9879994 442.90495994 -170.13653255 434.24960939 -178.98217773 423.74414062 C-180.37438191 422.13077164 -181.81654421 420.56009167 -183.28686523 419.01757812 C-189.06052824 412.95733915 -194.23820811 406.63180925 -199.21264648 399.89648438 C-199.78700439 399.12135498 -200.3613623 398.34622559 -200.953125 397.54760742 C-204.41867392 392.7868077 -207.56340646 387.91055625 -210.54199219 382.83105469 C-211.91578246 380.49489506 -213.33949736 378.19502006 -214.77514648 375.89648438 C-220.65827937 366.06038031 -225.70023892 355.75366128 -229.59936523 344.97460938 C-230.35535128 342.9677275 -231.14360533 340.97134867 -232.01147461 339.01025391 C-235.31517225 331.49092676 -237.60048089 323.89951802 -239.53051758 315.93310547 C-240.02032935 313.91631878 -240.52738147 311.904474 -241.03686523 309.89257812 C-242.06350984 305.78409533 -242.99785073 301.65887159 -243.90014648 297.52148438 C-244.12427719 296.52591019 -244.12427719 296.52591019 -244.35293579 295.51022339 C-247.31649339 281.97375209 -247.39323717 268.45776651 -247.34619141 254.64672852 C-247.33769959 250.85767885 -247.36651482 247.07015122 -247.39819336 243.28125 C-247.4429439 227.94231598 -246.181294 213.50464823 -242.90014648 198.52148438 C-242.628396 197.23056885 -242.35664551 195.93965332 -242.07666016 194.60961914 C-241.37139338 191.43511173 -240.60051267 188.29171638 -239.77514648 185.14648438 C-239.48438232 184.03490967 -239.19361816 182.92333496 -238.89404297 181.77807617 C-234.03694789 163.9804627 -226.82163513 146.67268307 -217.90014648 130.52148438 C-217.40877197 129.63154785 -217.40877197 129.63154785 -216.9074707 128.72363281 C-208.26403999 113.30652366 -198.17705879 98.26491935 -185.90014648 85.52148438 C-184.66259763 84.13307729 -183.43306858 82.73746979 -182.21264648 81.33398438 C-181.65061523 80.69203125 -181.08858398 80.05007812 -180.50952148 79.38867188 C-179.4646021 78.17636249 -178.43246064 76.95287685 -177.41577148 75.71679688 C-173.62573896 71.13208011 -169.44213273 67.35026617 -164.90014648 63.52148438 C-163.98620117 62.7196875 -163.07225586 61.91789062 -162.13061523 61.09179688 C-149.71703158 50.26190495 -136.4184881 40.34722461 -121.90014648 32.52148438 C-120.5406313 31.75871334 -119.18126787 30.9956718 -117.82202148 30.23242188 C-100.50995902 20.66053275 -82.36887325 13.51152152 -63.33764648 8.14648438 C-62.25306152 7.83694824 -61.16847656 7.52741211 -60.05102539 7.20849609 C-40.16829771 1.8667377 -20.55831058 -0.14292829 0 0 Z " fill="#EBEBEB" transform="translate(246.900146484375,-0.521484375)"/>
<path d="M0 0 C24.42 0 48.84 0 74 0 C74 1.98 74 3.96 74 6 C51.89 6 29.78 6 7 6 C7 20.52 7 35.04 7 50 C27.46 50 47.92 50 69 50 C69 51.65 69 53.3 69 55 C48.54 55 28.08 55 7 55 C7 70.84 7 86.68 7 103 C29.11 103 51.22 103 74 103 C74 104.98 74 106.96 74 109 C49.58 109 25.16 109 0 109 C0 73.03 0 37.06 0 0 Z " fill="#121212" transform="translate(148,195)"/>
<path d="M0 0 C0 4.3540219 -2.60361981 6.71073647 -5.1875 10 C-9.81659943 16.02516605 -14.24013189 22.14584407 -18.5 28.4375 C-22.60931117 34.50091914 -26.75758303 40.52885408 -31 46.5 C-35.22932003 52.45829172 -39.38626269 58.4613464 -43.5 64.5 C-47.65612304 70.60055512 -51.85753337 76.66431138 -56.125 82.6875 C-56.851427 83.71858887 -56.851427 83.71858887 -57.5925293 84.77050781 C-60.11279771 88.34690076 -62.65529172 91.90431347 -65.23046875 95.44140625 C-66.2581742 96.87734537 -67.28553058 98.31353439 -68.3125 99.75 C-68.79928223 100.40572998 -69.28606445 101.06145996 -69.78759766 101.73706055 C-71.59749693 104.29325162 -72.95572585 106.27064155 -73.1484375 109.4453125 C-71.37747831 113.38479315 -68.89725501 116.67978136 -66.3125 120.125 C-65.73669189 120.90689697 -65.16088379 121.68879395 -64.56762695 122.49438477 C-63.34471271 124.15314677 -62.11796431 125.80908785 -60.88769531 127.46240234 C-59.01831585 129.9753783 -57.15977991 132.49599476 -55.3046875 135.01953125 C-48.88157589 143.76007924 -48.88157589 143.76007924 -42.41015625 152.46484375 C-41.69730469 153.42519531 -40.98445313 154.38554687 -40.25 155.375 C-39.65703125 156.16648437 -39.0640625 156.95796875 -38.453125 157.7734375 C-36.93191465 160.10432432 -35.94181907 162.38691375 -35 165 C-38.02138263 165.38212556 -40.07452613 165.61976408 -43 165 C-45.49025593 162.93957753 -47.00756433 160.36151582 -48.6875 157.625 C-49.7183707 156.0574867 -50.75098218 154.4911171 -51.78515625 152.92578125 C-52.5743042 151.7049585 -52.5743042 151.7049585 -53.37939453 150.45947266 C-55.99920521 146.48358041 -58.81434489 142.65464147 -61.625 138.8125 C-62.70531324 137.32225658 -63.78475161 135.83137852 -64.86328125 134.33984375 C-65.38486816 133.61909668 -65.90645508 132.89834961 -66.44384766 132.15576172 C-70.31917661 126.78720906 -74.15893691 121.39309536 -78 116 C-81.36664575 117.12221525 -81.81256737 117.74582064 -83.78515625 120.54296875 C-84.31052979 121.2798291 -84.83590332 122.01668945 -85.37719727 122.77587891 C-85.93334717 123.57171387 -86.48949707 124.36754883 -87.0625 125.1875 C-87.64249756 126.00395996 -88.22249512 126.82041992 -88.82006836 127.66162109 C-90.55329505 130.10316851 -92.27722696 132.55106997 -94 135 C-96.47358637 138.49411445 -98.95698779 141.98070465 -101.4609375 145.453125 C-103.35824381 148.08433772 -105.20238658 150.74804334 -107.0390625 153.421875 C-108.08766449 154.90686979 -109.13712965 156.39125548 -110.1875 157.875 C-110.6626001 158.58414551 -111.1377002 159.29329102 -111.62719727 160.02392578 C-112.99058625 161.91936327 -114.1996634 163.51160008 -116 165 C-119.86328125 165.4453125 -119.86328125 165.4453125 -123 165 C-121.35331327 159.79067027 -118.14127092 155.77821003 -114.9375 151.4375 C-114.05578125 150.2299707 -114.05578125 150.2299707 -113.15625 148.99804688 C-109.96848536 144.64190022 -106.74743833 140.31177566 -103.5 136 C-101.99773358 134.00164933 -100.49737901 132.00200484 -99 130 C-98.46246094 129.28215332 -97.92492187 128.56430664 -97.37109375 127.82470703 C-95.57105846 125.41097839 -93.7844721 122.98775098 -92 120.5625 C-91.1347168 119.40717773 -91.1347168 119.40717773 -90.25195312 118.22851562 C-89.71505859 117.49439453 -89.17816406 116.76027344 -88.625 116.00390625 C-88.14289063 115.35236572 -87.66078125 114.7008252 -87.1640625 114.02954102 C-85.774598 111.60701199 -85.19779275 109.78991872 -85 107 C-85.94880549 104.97914619 -85.94880549 104.97914619 -87.5546875 103.21484375 C-88.11381836 102.52632324 -88.67294922 101.83780273 -89.24902344 101.12841797 C-89.8268457 100.42604004 -90.40466797 99.72366211 -91 99 C-92.01347777 97.63430462 -93.01620516 96.26056322 -94.0078125 94.87890625 C-94.51376953 94.17926758 -95.01972656 93.47962891 -95.54101562 92.75878906 C-96.32508789 91.67162598 -96.32508789 91.67162598 -97.125 90.5625 C-97.68123047 89.79260742 -98.23746094 89.02271484 -98.81054688 88.22949219 C-103.24609958 82.07735553 -107.62519638 75.88645325 -111.95361328 69.65844727 C-114.13888449 66.53558954 -116.35586478 63.53034562 -118.84375 60.640625 C-121 58 -121 58 -121 56 C-117.96422248 55.60544675 -115.936356 55.36241803 -113 56 C-110.47090479 58.12665188 -108.90720692 60.76490642 -107.1875 63.5625 C-106.15395033 65.13387038 -105.1187609 66.70416332 -104.08203125 68.2734375 C-103.31173584 69.46598145 -103.31173584 69.46598145 -102.52587891 70.68261719 C-100.2675482 74.1123892 -97.83160821 77.39830647 -95.375 80.6875 C-92.59176857 84.44375558 -89.83666418 88.21357905 -87.16015625 92.046875 C-86.7027002 92.69954346 -86.24524414 93.35221191 -85.77392578 94.0246582 C-84.90074081 95.27445802 -84.03297339 96.52806516 -83.17138672 97.78588867 C-82.16320136 99.22612355 -81.08756604 100.61872728 -80 102 C-79.34 102 -78.68 102 -78 102 C-76.68253288 100.55342849 -76.68253288 100.55342849 -75.3828125 98.625 C-74.86452881 97.89522949 -74.34624512 97.16545898 -73.81225586 96.41357422 C-73.25546143 95.61709473 -72.69866699 94.82061523 -72.125 94 C-70.94263991 92.33506073 -69.75902084 90.67101489 -68.57421875 89.0078125 C-67.67582275 87.74372559 -67.67582275 87.74372559 -66.75927734 86.45410156 C-64.20333658 82.88869543 -61.57915016 79.37716112 -58.9375 75.875 C-58.20418457 74.9017981 -58.20418457 74.9017981 -57.45605469 73.90893555 C-56.46866972 72.59930167 -55.48087794 71.2899744 -54.49267578 69.98095703 C-52.96844066 67.95811703 -51.4501258 65.93096406 -49.93359375 63.90234375 C-41.35242508 52.42388609 -32.67485646 41.04653733 -23.68505859 29.88452148 C-19.20225298 24.29859832 -14.85147766 18.61626761 -10.53979492 12.89746094 C-7.17514452 8.45558621 -3.66355611 4.19941954 0 0 Z " fill="#111111" transform="translate(349,139)"/>
<path d="M0 0 C9 0 9 0 11.23657227 1.82226562 C11.75791748 2.67498047 12.2792627 3.52769531 12.81640625 4.40625 C13.42726074 5.3660376 14.03811523 6.3258252 14.66748047 7.31469727 C15.60551514 8.89142212 15.60551514 8.89142212 16.5625 10.5 C17.95093862 12.70758766 19.34028801 14.91460273 20.73046875 17.12109375 C21.44115679 18.27162425 22.15127828 19.4225049 22.86083984 20.57373047 C26.22269265 25.9971565 29.8121974 31.26999234 33.375 36.5625 C34.70545865 38.55530126 36.03491728 40.5487706 37.36328125 42.54296875 C37.98412598 43.47415527 38.6049707 44.4053418 39.24462891 45.36474609 C40.82537809 47.73784856 42.40367487 50.11254964 43.98046875 52.48828125 C49.00890089 60.06138803 54.12058169 67.56286475 59.40087891 74.96337891 C60.45743523 76.44428166 61.51273115 77.92608431 62.56689453 79.40869141 C63.62097885 80.89088831 64.67780173 82.37114275 65.73779297 83.84912109 C68.35202987 87.52718224 70.73264012 91.21035905 72.92504883 95.16186523 C75.15408051 98.9734436 77.73523246 102.56109795 80.25 106.1875 C81.41849131 107.88375473 82.58646159 109.58036849 83.75390625 111.27734375 C84.31480957 112.09187012 84.87571289 112.90639648 85.45361328 113.74560547 C88.68868455 118.46184293 91.84075396 123.23275447 95 128 C96.2344616 129.8540022 97.47017278 131.70716575 98.70629883 133.56005859 C99.5623547 134.84373852 100.4176723 136.12791111 101.2722168 137.41259766 C103.28217277 140.43318304 105.30010867 143.44739459 107.34375 146.4453125 C108.0553125 147.49460937 108.766875 148.54390625 109.5 149.625 C110.1290625 150.54539062 110.758125 151.46578125 111.40625 152.4140625 C112.93102375 154.88808266 114.015167 157.27201259 115 160 C111.3271087 156.50848605 108.31599252 152.86382031 105.4375 148.6875 C101.7070395 143.3735811 97.90143409 138.12732047 94 132.9375 C93.49484863 132.26509277 92.98969727 131.59268555 92.46923828 130.89990234 C89.69408081 127.2172247 86.89025489 123.55875866 84.05981445 119.91845703 C79.28022104 113.76457849 74.754179 107.47135671 70.37548828 101.02490234 C68.77344807 98.66648531 67.16610893 96.31171983 65.55859375 93.95703125 C62.98153955 90.18073054 60.40607059 86.40335637 57.83203125 82.625 C57.18830566 81.68011719 56.54458008 80.73523438 55.88134766 79.76171875 C54.68038871 77.99877461 53.4795319 76.23576089 52.27880859 74.47265625 C45.66865585 64.77068956 38.99780783 55.11532212 32.25 45.50854492 C27.56257554 38.8267367 22.9407158 32.10182089 18.34960938 25.35351562 C17.85138672 24.62197266 17.35316406 23.89042969 16.83984375 23.13671875 C16.41050537 22.50467529 15.98116699 21.87263184 15.53881836 21.22143555 C13.39309655 18.12387521 11.19019638 15.06627493 9 12 C8.67 44.01 8.34 76.02 8 109 C5.36 109 2.72 109 0 109 C0 73.03 0 37.06 0 0 Z " fill="#1C1C1C" transform="translate(57,195)"/>
<path d="M0 0 C27.06 0 54.12 0 82 0 C82 1.65 82 3.3 82 5 C69.46 5 56.92 5 44 5 C44 38.99 44 72.98 44 108 C42.02 108 40.04 108 38 108 C38 74.01 38 40.02 38 5 C25.46 5 12.92 5 0 5 C0 3.35 0 1.7 0 0 Z " fill="#050505" transform="translate(318,196)"/>
<path d="M0 0 C0 4.3540219 -2.60361981 6.71073647 -5.1875 10 C-9.8165945 16.02515963 -14.24024825 22.1457681 -18.5 28.4375 C-22.70894668 34.65007674 -26.96556954 40.8205702 -31.3125 46.9375 C-36.00311907 53.54394091 -40.55996633 60.22241919 -45 67 C-46.32 66.34 -47.64 65.68 -49 65 C-48.39221394 61.72485984 -47.28888705 59.76195447 -45.2265625 57.1640625 C-44.65462158 56.43670898 -44.08268066 55.70935547 -43.4934082 54.95996094 C-42.56854614 53.80415527 -42.56854614 53.80415527 -41.625 52.625 C-40.67596802 51.42278809 -40.67596802 51.42278809 -39.70776367 50.19628906 C-38.4180465 48.56330795 -37.12565405 46.93243612 -35.83056641 45.30371094 C-33.75637094 42.69340039 -31.6978242 40.0711944 -29.6418457 37.4465332 C-26.9750381 34.04310877 -24.29829711 30.64748475 -21.62207031 27.25146484 C-20.22665305 25.48058366 -18.831865 23.70920983 -17.4375 21.9375 C-16.98745605 21.36580078 -16.53741211 20.79410156 -16.07373047 20.20507812 C-12.39989066 15.5290413 -8.77163026 10.81880733 -5.17163086 6.08569336 C-3.53006089 3.93682202 -1.91489812 1.91489812 0 0 Z " fill="#121212" transform="translate(349,139)"/>
<path d="M0 0 C4.41554849 4.06036726 7.55743689 8.54335865 10.8125 13.5625 C11.87890306 15.18489793 12.94530931 16.80729376 14.01171875 18.4296875 C14.52524902 19.21569336 15.0387793 20.00169922 15.56787109 20.81152344 C17.40267347 23.61533668 19.26194246 26.40239972 21.125 29.1875 C23.2265625 32.33984375 25.328125 35.4921875 27.4296875 38.64453125 C27.85169434 39.27738037 28.27370117 39.91022949 28.70849609 40.56225586 C29.56359041 41.84522063 30.41809117 43.12858122 31.27197266 44.41235352 C33.28208112 47.4329721 35.30004536 50.44730171 37.34375 53.4453125 C38.0553125 54.49460937 38.766875 55.54390625 39.5 56.625 C40.1290625 57.54539062 40.758125 58.46578125 41.40625 59.4140625 C42.93102375 61.88808266 44.015167 64.27201259 45 67 C41.3271087 63.50848605 38.31599252 59.86382031 35.4375 55.6875 C31.7070395 50.3735811 27.90143409 45.12732047 24 39.9375 C23.49484863 39.26509277 22.98969727 38.59268555 22.46923828 37.89990234 C19.69296353 34.21574205 16.88797791 30.55582846 14.05639648 26.9140625 C10.23830484 21.99812899 6.51670629 17.02918872 2.9375 11.9375 C2.20402344 10.89464844 1.47054687 9.85179687 0.71484375 8.77734375 C-1.8014086 4.70204667 -1.8014086 4.70204667 -2 2 C-1.34 1.34 -0.68 0.68 0 0 Z " fill="#181818" transform="translate(127,288)"/>
<path d="M0 0 C0 0.66 0 1.32 0 2 C1.32 2.66 2.64 3.32 4 4 C4 4.99 4 5.98 4 7 C2.68 7 1.36 7 0 7 C-0.33 6.34 -0.66 5.68 -1 5 C-3.31 5 -5.62 5 -8 5 C-7.88072436 6.95285082 -7.88072436 6.95285082 -7 9 C-4.76014735 10.28749501 -4.76014735 10.28749501 -2.0625 11.125 C2.82781457 12.82781457 2.82781457 12.82781457 5 15 C5.4375 17.375 5.4375 17.375 5 20 C2.77618175 22.74270917 1.05968703 23.84813402 -2.453125 24.3515625 C-9.23275566 24.5696208 -9.23275566 24.5696208 -11.8046875 22.66015625 C-13 21 -13 21 -13 18 C-11.68 18 -10.36 18 -9 18 C-8.67 18.66 -8.34 19.32 -8 20 C-5.69 20 -3.38 20 -1 20 C-0.67 18.68 -0.34 17.36 0 16 C-0.68707031 15.81824219 -1.37414062 15.63648438 -2.08203125 15.44921875 C-2.98308594 15.19785156 -3.88414062 14.94648438 -4.8125 14.6875 C-5.70582031 14.44386719 -6.59914063 14.20023437 -7.51953125 13.94921875 C-10.09608037 12.96323224 -11.33873534 12.17906143 -13 10 C-13.5244772 6.4785102 -13.41549639 4.68647229 -11.5625 1.625 C-7.79880462 -0.76173366 -4.34043107 -0.33387931 0 0 Z " fill="#1B1B1B" transform="translate(439,272)"/>
<path d="M0 0 C1.32 0 2.64 0 4 0 C4.08733513 3.08315385 4.14050127 6.16598827 4.1875 9.25 C4.21263672 10.12269531 4.23777344 10.99539063 4.26367188 11.89453125 C4.33693642 18.29296833 4.33693642 18.29296833 2.76953125 21.58203125 C0.53934933 23.36913067 -0.66255909 23.50843602 -3.5 23.4375 C-4.2734375 23.43621094 -5.046875 23.43492187 -5.84375 23.43359375 C-8.4859031 22.90229122 -9.41599949 22.15769301 -11 20 C-11 19.01 -11 18.02 -11 17 C-9.68 17 -8.36 17 -7 17 C-6.67 17.66 -6.34 18.32 -6 19 C-4.35 18.67 -2.7 18.34 -1 18 C-0.505 9.09 -0.505 9.09 0 0 Z " fill="#2E2E2E" transform="translate(417,273)"/>
<path d="M0 0 C0 4.35375171 -2.60322184 6.71113658 -5.1875 10 C-10.66767168 17.11807688 -15.7958602 24.42592654 -20.80932617 31.87890625 C-21.32857666 32.64847656 -21.84782715 33.41804688 -22.3828125 34.2109375 C-22.84059082 34.89462402 -23.29836914 35.57831055 -23.77001953 36.28271484 C-25 38 -25 38 -27 40 C-29.125 39.625 -29.125 39.625 -31 39 C-30.28457031 38.11441406 -29.56914062 37.22882813 -28.83203125 36.31640625 C-22.61743377 28.59824311 -16.50782659 20.81334657 -10.54223633 12.90063477 C-7.17672108 8.45772625 -3.66444334 4.20043654 0 0 Z " fill="#525252" transform="translate(349,139)"/>
<path d="M0 0 C3.20515184 2.83173609 5.3676309 6.38828714 7.6875 9.9375 C8.57416992 11.28128222 9.46088942 12.62503173 10.34765625 13.96875 C10.78996582 14.64164062 11.23227539 15.31453125 11.68798828 16.0078125 C13.65402449 18.99308519 15.63976715 21.96495884 17.625 24.9375 C19.3125 27.46875 19.3125 27.46875 21 30 C20.67 30.66 20.34 31.32 20 32 C19.64808594 31.50709473 19.29617187 31.01418945 18.93359375 30.50634766 C17.29193677 28.21049251 15.64637588 25.91747351 14 23.625 C13.11610596 22.39112549 13.11610596 22.39112549 12.21435547 21.13232422 C8.41559545 15.86186948 4.50352356 10.81167236 0.1953125 5.9453125 C-1 4 -1 4 -0.6953125 1.7421875 C-0.46585938 1.16726563 -0.23640625 0.59234375 0 0 Z " fill="#2B2B2B" transform="translate(151,323)"/>
<path d="M0 0 C4.455 0.99 4.455 0.99 9 2 C9.33 3.32 9.66 4.64 10 6 C8 8 8 8 4.375 8.125 C3.26125 8.08375 2.1475 8.0425 1 8 C0.67 7.01 0.34 6.02 0 5 C-1.32 5 -2.64 5 -4 5 C-4.33 5.66 -4.66 6.32 -5 7 C-5 6.01 -5 5.02 -5 4 C-2.5 2.375 -2.5 2.375 0 1 C0 0.67 0 0.34 0 0 Z " fill="#DCDCDC" transform="translate(430,285)"/>
<path d="M0 0 C0.99 0 1.98 0 3 0 C3.05791844 3.12492251 3.09356746 6.24970766 3.125 9.375 C3.14175781 10.26445312 3.15851563 11.15390625 3.17578125 12.0703125 C3.18222656 12.92109375 3.18867188 13.771875 3.1953125 14.6484375 C3.20578613 15.43395996 3.21625977 16.21948242 3.22705078 17.02880859 C3 19 3 19 1 21 C0 20 0 20 -0.11352539 18.05053711 C-0.10567017 16.8015564 -0.10567017 16.8015564 -0.09765625 15.52734375 C-0.09443359 14.62822266 -0.09121094 13.72910156 -0.08789062 12.80273438 C-0.07951172 11.85720703 -0.07113281 10.91167969 -0.0625 9.9375 C-0.05798828 8.98810547 -0.05347656 8.03871094 -0.04882812 7.06054688 C-0.0370011 4.70696935 -0.02052025 2.35351523 0 0 Z " fill="#191919" transform="translate(418,273)"/>
<path d="M0 0 C2.5625 2.1875 2.5625 2.1875 5 5 C5 8.13751973 4.47802742 9.4454882 2.4375 11.8125 C1.963125 12.204375 1.48875 12.59625 1 13 C-1 12 -1 12 -2.25 9.6875 C-3 7 -3 7 -2.1875 4.875 C-1.795625 4.25625 -1.40375 3.6375 -1 3 C-0.67 2.01 -0.34 1.02 0 0 Z " fill="#DCDCDC" transform="translate(260,241)"/>
<path d="M0 0 C0.33 0.99 0.66 1.98 1 3 C-1.42826206 5.49764097 -3.81385571 7.85471665 -6.5625 10 C-9.12758972 12.104689 -11.01420997 14.35227996 -13 17 C-13.66 16.67 -14.32 16.34 -15 16 C-14.37351562 15.24074219 -13.74703125 14.48148438 -13.1015625 13.69921875 C-12.28429687 12.70535156 -11.46703125 11.71148437 -10.625 10.6875 C-9.81289063 9.70136719 -9.00078125 8.71523437 -8.1640625 7.69921875 C-5.94395043 5.01091621 -5.94395043 5.01091621 -4 2 C-1.875 0.8125 -1.875 0.8125 0 0 Z " fill="#212121" transform="translate(321,177)"/>
<path d="M0 0 C0.66 0 1.32 0 2 0 C3.7265625 2.1875 3.7265625 2.1875 5.625 5 C6.25664062 5.928125 6.88828125 6.85625 7.5390625 7.8125 C8.26222656 8.8953125 8.26222656 8.8953125 9 10 C8.67 10.66 8.34 11.32 8 12 C7.34 11.34 6.68 10.68 6 10 C5.01 10 4.02 10 3 10 C0.75 7.8125 0.75 7.8125 -1 5 C-0.75 2.1875 -0.75 2.1875 0 0 Z " fill="#202020" transform="translate(136,302)"/>
<path d="M0 0 C2.97 0 5.94 0 9 0 C9 0.66 9 1.32 9 2 C10.32 2.66 11.64 3.32 13 4 C13 4.99 13 5.98 13 7 C11.68 7 10.36 7 9 7 C8.67 6.34 8.34 5.68 8 5 C4.97065509 4.34227572 4.97065509 4.34227572 2 4 C2 3.67 2 3.34 2 3 C3.65 3 5.3 3 7 3 C7 2.34 7 1.68 7 1 C4.69 1 2.38 1 0 1 C0 0.67 0 0.34 0 0 Z " fill="#545454" transform="translate(430,272)"/>
<path d="M0 0 C0.66 1.32 1.32 2.64 2 4 C0.7934375 5.11375 0.7934375 5.11375 -0.4375 6.25 C-2.76988591 8.75304829 -3.63534394 9.7180955 -4 13 C-5.65 13.33 -7.3 13.66 -9 14 C-6.28316728 9.06945173 -3.33342102 4.53715638 0 0 Z " fill="#CACACA" transform="translate(253,275)"/>
<path d="M0 0 C1.32 0 2.64 0 4 0 C4.66 0.99 5.32 1.98 6 3 C8.05003955 4.19232613 8.05003955 4.19232613 10 5 C10 5.33 10 5.66 10 6 C3.539801 6.36567164 3.539801 6.36567164 1.0625 4.6875 C0 3 0 3 0 0 Z " fill="#1A1A1A" transform="translate(406,290)"/>
<path d="M0 0 C1.32 0 2.64 0 4 0 C4.33 0.66 4.66 1.32 5 2 C8.02934491 2.65772428 8.02934491 2.65772428 11 3 C11 3.33 11 3.66 11 4 C9.35 4 7.7 4 6 4 C6 4.66 6 5.32 6 6 C3.13275314 5.42655063 2.1385485 5.1385485 0 3 C0 2.01 0 1.02 0 0 Z " fill="#262626" transform="translate(426,290)"/>
<path d="M0 0 C0.66 0 1.32 0 2 0 C1.67 0.66 1.34 1.32 1 2 C0.67 1.34 0.34 0.68 0 0 Z M2 3 C2 3.99 2 4.98 2 6 C4.97 6.495 4.97 6.495 8 7 C8 7.33 8 7.66 8 8 C5.69 8 3.38 8 1 8 C0.67 7.01 0.34 6.02 0 5 C-1.32 5 -2.64 5 -4 5 C-4.33 5.66 -4.66 6.32 -5 7 C-5 6.01 -5 5.02 -5 4 C-1.375 1.875 -1.375 1.875 2 3 Z " fill="#CDCDCD" transform="translate(430,285)"/>
<path d="M0 0 C3.78699616 3.36621881 6.8272631 7.41641804 9 12 C8.67 12.66 8.34 13.32 8 14 C5.03 10.04 2.06 6.08 -1 2 C-0.67 1.34 -0.34 0.68 0 0 Z " fill="#575757" transform="translate(163,341)"/>
<path d="M0 0 C0.66 0.33 1.32 0.66 2 1 C-0.475 4.465 -0.475 4.465 -3 8 C-3.99 7.67 -4.98 7.34 -6 7 C-4.02 4.69 -2.04 2.38 0 0 Z " fill="#383838" transform="translate(335,157)"/>
<path d="M0 0 C0.99 0.99 1.98 1.98 3 3 C2.34 4.32 1.68 5.64 1 7 C0.01 6.34 -0.98 5.68 -2 5 C-1.125 1.125 -1.125 1.125 0 0 Z " fill="#DEDEDE" transform="translate(148,324)"/>
<path d="M0 0 C1.32 0.66 2.64 1.32 4 2 C3.34 3.32 2.68 4.64 2 6 C1.01 5.01 0.02 4.02 -1 3 C-0.67 2.01 -0.34 1.02 0 0 Z " fill="#090909" transform="translate(123,285)"/>
<path d="M0 0 C0.66 0 1.32 0 2 0 C2.33 1.98 2.66 3.96 3 6 C1.68 5.67 0.36 5.34 -1 5 C-0.67 3.35 -0.34 1.7 0 0 Z " fill="#0E0E0E" transform="translate(428,278)"/>
<path d="M0 0 C0.99 0 1.98 0 3 0 C1.75023244 3.65316671 1.32901247 4.78065836 -2 7 C-1.125 2.25 -1.125 2.25 0 0 Z " fill="#202020" transform="translate(328,165)"/>
<path d="M0 0 C1.98 0.99 1.98 0.99 4 2 C4 2.99 4 3.98 4 5 C2.68 5 1.36 5 0 5 C0 3.35 0 1.7 0 0 Z " fill="#292929" transform="translate(439,274)"/>
</svg>
