<?xml version="1.0" encoding="UTF-8"?>
<svg version="1.1" xmlns="http://www.w3.org/2000/svg" width="348" height="261">
<path d="M0 0 C3.77757519 1.37822906 5.07080473 4.05581283 6.95703125 7.40234375 C7.49553711 8.30049805 7.49553711 8.30049805 8.04492188 9.21679688 C10.64453125 13.63860863 10.64453125 13.63860863 10.64453125 15.96484375 C15.48692099 15.54488429 17.25545209 13.66804948 20.33203125 10.02734375 C21.09902344 9.13144531 21.86601562 8.23554688 22.65625 7.3125 C23.31238281 6.53777344 23.96851563 5.76304688 24.64453125 4.96484375 C26.64453125 2.96484375 26.64453125 2.96484375 29.01953125 2.83984375 C32.55699217 4.35589843 33.20381787 6.19543812 34.73046875 9.62109375 C36.18716763 13.35621908 37.4731331 17.13117708 38.64453125 20.96484375 C44.3566888 20.81837817 47.34318371 18.11406761 51.49609375 14.55859375 C53.69216569 12.92950766 54.91573259 12.09427294 57.64453125 11.96484375 C59.78515625 12.859375 59.78515625 12.859375 61.64453125 14.96484375 C62.56439008 17.81414417 62.98174172 20.69240003 63.39453125 23.65234375 C63.51957031 24.44962891 63.64460937 25.24691406 63.7734375 26.06835938 C64.07908178 28.03153612 64.36384918 29.9979429 64.64453125 31.96484375 C67.63283049 33.33701586 67.63283049 33.33701586 70.3515625 31.75 C72.41479658 30.60548902 74.47730249 29.45966431 76.5390625 28.3125 C79.89439756 26.8564112 82.0289026 26.5470607 85.64453125 26.96484375 C87.64453125 28.96484375 87.64453125 28.96484375 87.87158203 30.93603516 C87.85587158 32.11431885 87.85587158 32.11431885 87.83984375 33.31640625 C87.83017578 34.59257813 87.83017578 34.59257813 87.8203125 35.89453125 C87.79517578 37.22871094 87.79517578 37.22871094 87.76953125 38.58984375 C87.76050781 39.48703125 87.75148438 40.38421875 87.7421875 41.30859375 C87.71858095 43.52760961 87.68565435 45.74609452 87.64453125 47.96484375 C92.18983512 49.47994504 95.88074004 47.76852141 100.41796875 46.55859375 C103.68265353 45.95782851 105.57309033 45.70587857 108.64453125 46.96484375 C110.84832874 50.18766738 110.64059875 51.99590122 110.1484375 55.8828125 C109.84893708 57.30906783 109.53473301 58.73230279 109.20703125 60.15234375 C107.74599264 65.14067563 107.74599264 65.14067563 108.64453125 69.96484375 C110.43310547 69.93003906 110.43310547 69.93003906 112.2578125 69.89453125 C113.82421249 69.87577197 115.39061925 69.85757194 116.95703125 69.83984375 C117.74271484 69.82308594 118.52839844 69.80632812 119.33789062 69.7890625 C120.09521484 69.78261719 120.85253906 69.77617188 121.6328125 69.76953125 C122.32930908 69.75905762 123.02580566 69.74858398 123.7434082 69.73779297 C125.64453125 69.96484375 125.64453125 69.96484375 128.64453125 71.96484375 C129.23016251 76.64323891 128.10163097 79.81414297 126.14453125 84.02734375 C124.34639585 87.90831932 123.32910402 90.66714776 123.64453125 94.96484375 C124.71380859 95.03832031 124.71380859 95.03832031 125.8046875 95.11328125 C131.34961616 95.54612898 136.36539574 96.20513191 141.64453125 97.96484375 C142.53531046 100.69656666 142.94694817 102.15385372 142.64453125 104.96484375 C140.64255447 108.56625506 138.17143643 111.72020259 135.64453125 114.96484375 C135.31453125 115.62484375 134.98453125 116.28484375 134.64453125 116.96484375 C135.30453125 117.15046875 135.96453125 117.33609375 136.64453125 117.52734375 C144.85756255 121.46275458 149.38281742 127.60757699 152.64453125 135.96484375 C155.77198555 146.83074265 151.37459997 157.06279608 146.24365234 166.59155273 C139.91897862 177.95076276 132.9268255 188.82997807 125.45703125 199.46484375 C125.06515625 200.02848633 124.67328125 200.59212891 124.26953125 201.17285156 C121.38397237 205.2140816 118.32860978 208.65465682 114.64453125 211.96484375 C113.65453125 211.96484375 112.66453125 211.96484375 111.64453125 211.96484375 C111.1529194 198.39999825 112.63956032 185.37219815 114.64453125 171.96484375 C114.03194458 172.58528564 114.03194458 172.58528564 113.40698242 173.21826172 C111.55130485 175.09475408 109.69172131 176.96732824 107.83203125 178.83984375 C107.18943359 179.49082031 106.54683594 180.14179688 105.88476562 180.8125 C105.26279297 181.43769531 104.64082031 182.06289062 104 182.70703125 C103.14378052 183.57110596 103.14378052 183.57110596 102.27026367 184.45263672 C99.6731448 186.86839799 98.25151199 187.96484375 94.64453125 187.96484375 C94.37300112 181.82408543 95.22398899 176.9250178 97.08203125 171.08984375 C97.31212891 170.331875 97.54222656 169.57390625 97.77929688 168.79296875 C99.44678859 163.36032906 99.44678859 163.36032906 100.64453125 160.96484375 C97.74196141 162.00058983 96.76957118 162.74464981 95.22265625 165.46875 C94.784375 166.47808594 94.34609375 167.48742187 93.89453125 168.52734375 C90.03460061 176.60514346 85.45095674 182.47951922 77.64453125 186.96484375 C75.35246656 188.28565395 75.35246656 188.28565395 73.64453125 189.96484375 C73.1533721 192.28996414 73.32931144 194.18684848 73.55859375 196.546875 C73.79900244 203.31110125 69.88628632 209.09264478 65.76953125 214.15234375 C60.08109519 220.16312452 50.19926004 226.57342871 41.7434082 227.07836914 C41.04691162 227.07313232 40.35041504 227.06789551 39.6328125 227.0625 C38.87548828 227.05927734 38.11816406 227.05605469 37.33789062 227.05273438 C36.55220703 227.04435547 35.76652344 227.03597656 34.95703125 227.02734375 C34.15974609 227.02283203 33.36246094 227.01832031 32.54101562 227.01367188 C30.57548868 227.00190225 28.6100004 226.98396723 26.64453125 226.96484375 C26.64453125 222.78112559 28.41316903 221.76430661 31.26953125 218.77734375 C35.39801065 214.39184125 39.17353615 209.88914168 42.64453125 204.96484375 C41.90074219 205.03703125 41.15695313 205.10921875 40.390625 205.18359375 C28.81053002 206.16797018 17.25761304 206.06239484 5.64453125 205.96484375 C5.37140744 195.30163506 8.13909626 187.85433306 15.44921875 179.9375 C17.64453125 177.96484375 17.64453125 177.96484375 23.64453125 173.96484375 C11.10453125 174.29484375 -1.43546875 174.62484375 -14.35546875 174.96484375 C-11.05546875 177.93484375 -7.75546875 180.90484375 -4.35546875 183.96484375 C0.07394407 191.01574578 1.47148469 196.69007211 1.64453125 204.96484375 C-2.64142901 206.06427006 -6.44323949 205.92304254 -10.84375 205.625 C-11.5469487 205.57919296 -12.2501474 205.53338593 -12.97465515 205.4861908 C-15.20622143 205.33940927 -17.43704197 205.18351584 -19.66796875 205.02734375 C-21.18680874 204.9258287 -22.70568876 204.82491082 -24.22460938 204.72460938 C-27.93538442 204.47826535 -31.64554653 204.22374923 -35.35546875 203.96484375 C-28.88475001 213.35335811 -28.88475001 213.35335811 -21.73046875 222.21484375 C-19.35546875 224.96484375 -19.35546875 224.96484375 -19.35546875 226.96484375 C-30.17209946 229.84927861 -41.15917897 227.66741934 -50.8671875 222.50390625 C-59.44583737 217.19780257 -65.15910751 210.55392746 -68.35546875 200.96484375 C-68.42349842 199.23689023 -68.4404252 197.5064901 -68.41796875 195.77734375 C-68.40894531 194.87628906 -68.39992188 193.97523438 -68.390625 193.046875 C-68.37902344 192.35980469 -68.36742188 191.67273438 -68.35546875 190.96484375 C-69.23074219 190.71347656 -70.10601562 190.46210938 -71.0078125 190.203125 C-78.44880614 187.45073879 -85.05253424 181.8163577 -90.35546875 175.96484375 C-89.86046875 181.40984375 -89.86046875 181.40984375 -89.35546875 186.96484375 C-90.01546875 187.29484375 -90.67546875 187.62484375 -91.35546875 187.96484375 C-92.52766418 187.1813866 -93.69310543 186.38781539 -94.85546875 185.58984375 C-95.83 184.92855469 -95.83 184.92855469 -96.82421875 184.25390625 C-97.5821875 183.61582031 -97.5821875 183.61582031 -98.35546875 182.96484375 C-98.35546875 182.30484375 -98.35546875 181.64484375 -98.35546875 180.96484375 C-99.01546875 180.96484375 -99.67546875 180.96484375 -100.35546875 180.96484375 C-101.8359375 179.53125 -101.8359375 179.53125 -103.54296875 177.52734375 C-104.09339844 176.88925781 -104.64382812 176.25117188 -105.2109375 175.59375 C-108.3288214 171.7716446 -111.33982203 167.86784833 -114.35546875 163.96484375 C-114.12883545 164.68438232 -113.90220215 165.4039209 -113.66870117 166.14526367 C-112.62173199 169.47939215 -111.58232834 172.81583563 -110.54296875 176.15234375 C-110.18654297 177.28349609 -109.83011719 178.41464844 -109.46289062 179.58007812 C-102.77596132 201.11321745 -102.77596132 201.11321745 -103.35546875 210.96484375 C-107.19071032 210.43584491 -109.2659868 209.58590402 -112.10546875 206.96484375 C-112.78996094 206.33449219 -113.47445312 205.70414063 -114.1796875 205.0546875 C-123.68744729 195.92245862 -132.23070764 186.34231127 -140.35546875 175.96484375 C-141.12503906 175.00191406 -141.89460938 174.03898438 -142.6875 173.046875 C-150.11208546 163.52912283 -156.52989139 153.46247331 -155.35546875 140.96484375 C-153.67311706 132.25983132 -148.65002796 125.20068807 -141.60546875 119.90234375 C-138.35546875 117.96484375 -138.35546875 117.96484375 -135.35546875 117.96484375 C-136.34740234 116.67900391 -136.34740234 116.67900391 -137.359375 115.3671875 C-138.21327982 114.21300846 -139.06608706 113.05801683 -139.91796875 111.90234375 C-140.35560547 111.34095703 -140.79324219 110.77957031 -141.24414062 110.20117188 C-143.68208788 106.84179573 -144.37054948 105.23126999 -144.1328125 101.03125 C-143.74802734 99.51337891 -143.74802734 99.51337891 -143.35546875 97.96484375 C-137.52798256 95.5367245 -131.57971965 95.34756468 -125.35546875 94.96484375 C-125.08441666 90.35695822 -125.74366365 87.54766695 -127.85546875 83.46484375 C-129.95017258 79.41508302 -130.8192599 76.55122292 -130.35546875 71.96484375 C-128.35546875 69.96484375 -128.35546875 69.96484375 -126.47607422 69.73779297 C-125.73244629 69.7482666 -124.98881836 69.75874023 -124.22265625 69.76953125 C-123.41699219 69.77597656 -122.61132812 69.78242187 -121.78125 69.7890625 C-120.51861328 69.81419922 -120.51861328 69.81419922 -119.23046875 69.83984375 C-118.38097656 69.84886719 -117.53148437 69.85789062 -116.65625 69.8671875 C-114.55586991 69.89078728 -112.45563431 69.92665892 -110.35546875 69.96484375 C-108.87552083 64.98078278 -110.43746478 61.08224644 -111.76171875 56.15625 C-112.35863321 52.94783479 -112.35533598 51.04595635 -111.35546875 47.96484375 C-109.35546875 45.96484375 -109.35546875 45.96484375 -107.5078125 45.91796875 C-106.77691406 46.0159375 -106.04601562 46.11390625 -105.29296875 46.21484375 C-104.49632812 46.32054687 -103.6996875 46.42625 -102.87890625 46.53515625 C-99.61282801 47.0912996 -96.41083935 47.83418395 -93.203125 48.66015625 C-91.26690914 49.16505732 -91.26690914 49.16505732 -89.35546875 47.96484375 C-89.37867187 46.70027344 -89.401875 45.43570313 -89.42578125 44.1328125 C-89.44454001 42.47266215 -89.4627401 40.81250542 -89.48046875 39.15234375 C-89.49722656 38.31896484 -89.51398438 37.48558594 -89.53125 36.62695312 C-89.53769531 35.82451172 -89.54414062 35.02207031 -89.55078125 34.1953125 C-89.56125488 33.45692139 -89.57172852 32.71853027 -89.58251953 31.95776367 C-89.35546875 29.96484375 -89.35546875 29.96484375 -87.35546875 26.96484375 C-82.33204625 26.26069349 -79.04466231 27.78217558 -74.60546875 30.02734375 C-72.54935252 31.06244336 -70.47055263 32.05629253 -68.35546875 32.96484375 C-67.69546875 32.63484375 -67.03546875 32.30484375 -66.35546875 31.96484375 C-65.67065781 28.39028116 -65.14021436 24.83094422 -64.67578125 21.22265625 C-63.8050913 15.44444114 -63.8050913 15.44444114 -61.421875 12.90234375 C-59.35546875 11.96484375 -59.35546875 11.96484375 -56.66796875 12.33984375 C-52.78058127 14.24686402 -49.77693692 16.6902483 -46.50390625 19.50390625 C-44.23720103 21.3397171 -44.23720103 21.3397171 -40.35546875 20.96484375 C-39.95714844 19.83304688 -39.55882812 18.70125 -39.1484375 17.53515625 C-38.61380624 16.05319592 -38.07862109 14.57143532 -37.54296875 13.08984375 C-37.15141602 11.97029297 -37.15141602 11.97029297 -36.75195312 10.828125 C-36.36040039 9.75498047 -36.36040039 9.75498047 -35.9609375 8.66015625 C-35.60745239 7.67039795 -35.60745239 7.67039795 -35.24682617 6.66064453 C-34.35546875 4.96484375 -34.35546875 4.96484375 -31.35546875 2.96484375 C-27.36584634 3.17784207 -25.44747947 5.56406097 -22.79296875 8.33984375 C-22.02855469 9.13132812 -21.26414063 9.9228125 -20.4765625 10.73828125 C-19.21943482 12.05791804 -17.97629904 13.39152612 -16.765625 14.75390625 C-15.28592711 16.29058544 -15.28592711 16.29058544 -12.35546875 15.96484375 C-12.08734375 15.248125 -11.81921875 14.53140625 -11.54296875 13.79296875 C-10.34262894 10.93426472 -8.94740393 8.3733755 -7.35546875 5.71484375 C-6.83984375 4.8434375 -6.32421875 3.97203125 -5.79296875 3.07421875 C-3.98122325 0.41567916 -3.21149245 -0.04793272 0 0 Z M-72.35546875 168.96484375 C-69.36316568 172.27212609 -66.07141708 174.30486362 -61.91796875 175.90234375 C-58.14844546 175.99428334 -56.23980514 174.24548183 -53.35546875 171.96484375 C-53.35546875 171.63484375 -53.35546875 171.30484375 -53.35546875 170.96484375 C-59.73332395 169.79190486 -65.85868437 168.66953537 -72.35546875 168.96484375 Z M61.26953125 168.96484375 C60.20992187 169.15046875 59.1503125 169.33609375 58.05859375 169.52734375 C57.26195312 169.67171875 56.4653125 169.81609375 55.64453125 169.96484375 C60.21055583 173.17828558 60.21055583 173.17828558 65.58203125 173.90234375 C69.36719885 172.74361898 71.07370399 170.91373385 73.64453125 167.96484375 C69.3850211 167.86251318 65.46206038 168.21950524 61.26953125 168.96484375 Z " fill="#E33617" transform="translate(173.35546875,11.03515625)"/>
<path d="M0 0 C0.33 0.66 0.66 1.32 1 2 C0.00390625 4.3828125 0.00390625 4.3828125 -1.4375 7.125 C-2.14712891 8.49011719 -2.14712891 8.49011719 -2.87109375 9.8828125 C-3.24363281 10.58148438 -3.61617187 11.28015625 -4 12 C-5.051875 11.95875 -6.10375 11.9175 -7.1875 11.875 C-12.2099458 11.84809404 -17.02144718 12.75722326 -21.94921875 13.66015625 C-24.99265765 13.99918209 -27.05051784 13.70729833 -30 13 C-36.43543363 12.42893763 -41.93413462 13.26578138 -48.06640625 15.24609375 C-57.61515113 17.70003218 -67.76061441 17.31377271 -77.5625 17.5625 C-79.15951455 17.60577645 -80.75651991 17.64939337 -82.35351562 17.69335938 C-86.23558223 17.79950069 -90.11774432 17.90102619 -94 18 C-93.31365479 18.59312988 -92.62730957 19.18625977 -91.92016602 19.79736328 C-91.01967529 20.58868652 -90.11918457 21.38000977 -89.19140625 22.1953125 C-88.29881104 22.97406738 -87.40621582 23.75282227 -86.48657227 24.55517578 C-79.74051763 31.18796824 -78.1921911 38.80977081 -78 48 C-82.28596026 49.09942631 -86.08777074 48.95819879 -90.48828125 48.66015625 C-91.19147995 48.61434921 -91.89467865 48.56854218 -92.6191864 48.52134705 C-94.85075268 48.37456552 -97.08157322 48.21867209 -99.3125 48.0625 C-100.83133999 47.96098495 -102.35022001 47.86006707 -103.86914062 47.75976562 C-107.57991567 47.5134216 -111.29007778 47.25890548 -115 47 C-108.52928126 56.38851436 -108.52928126 56.38851436 -101.375 65.25 C-99 68 -99 68 -99 70 C-109.81663071 72.88443486 -120.80371022 70.70257559 -130.51171875 65.5390625 C-137.85310208 60.99823827 -144.08985459 55.27645356 -147 47 C-147.7466802 43.49627852 -148.33735043 39.96682464 -148.74951172 36.40820312 C-149.01770555 34.12686865 -149.01770555 34.12686865 -150 31 C-152.45873411 29.65251517 -152.45873411 29.65251517 -155 29 C-155.33 28.01 -155.66 27.02 -156 26 C-155 24.33333333 -154 22.66666667 -153 21 C-153.33 20.01 -153.66 19.02 -154 18 C-153.69728039 16.65938457 -153.36162029 15.32594105 -153 14 C-153 12.68 -153 11.36 -153 10 C-153.598125 9.814375 -154.19625 9.62875 -154.8125 9.4375 C-158.09981799 7.27726247 -158.64854687 4.64892345 -160 1 C-154.37938524 1.60654116 -148.91282408 2.5812103 -143.37548828 3.71386719 C-96.72993801 13.20133528 -45.78088037 15.26029346 0 0 Z M-152 12 C-149.00769693 15.30728234 -145.71594833 17.34001987 -141.5625 18.9375 C-137.79297671 19.02943959 -135.88433639 17.28063808 -133 15 C-133 14.67 -133 14.34 -133 14 C-139.3778552 12.82706111 -145.50321562 11.70469162 -152 12 Z " fill="#E23618" transform="translate(253,168)"/>
<path d="M0 0 C5.26957837 2.74338136 7.63545302 6.67156071 10.11328125 11.875 C11.81073708 19.51355125 12.18367227 28.41065309 7.86328125 35.25 C3.9383624 39.79357531 -0.13351053 42.30212502 -6.13671875 43.25 C-14.03982045 43.25 -19.01894378 39.91769259 -24.81640625 34.75390625 C-28.86182427 30.17138471 -28.72961622 25.26694076 -28.51171875 19.36328125 C-28.03786093 15.42927416 -27.05854312 12.69326865 -25.13671875 9.25 C-24.80671875 9.25 -24.47671875 9.25 -24.13671875 9.25 C-24.02714844 9.86488281 -23.91757813 10.47976562 -23.8046875 11.11328125 C-23.64613281 11.92152344 -23.48757812 12.72976562 -23.32421875 13.5625 C-23.17339844 14.36300781 -23.02257812 15.16351563 -22.8671875 15.98828125 C-22.04092744 18.54659448 -21.29433133 19.66125914 -19.13671875 21.25 C-15.58546546 21.49285895 -15.58546546 21.49285895 -12.13671875 20.25 C-9.03858857 16.05253331 -8.5777298 12.3740654 -9.13671875 7.25 C-10.82062562 3.54540489 -12.74757589 1.47047291 -16.13671875 -0.75 C-10.95897964 -2.47591304 -5.13478355 -1.80233719 0 0 Z " fill="#060203" transform="translate(153.13671875,115.75)"/>
<path d="M0 0 C5.23253887 2.09301555 9.92035153 4.68911918 12.36328125 9.91796875 C14.73173061 18.07596098 16.37375736 24.58951583 13.8125 32.8125 C10.80649049 38.09893051 6.57156907 40.74994326 1 43 C-4.29015877 44.28812416 -9.07995454 44.46124455 -14.140625 42.28515625 C-18.26407374 39.4351255 -21.12371818 34.73570909 -22.640625 30 C-24.08913634 21.93871952 -22.92620499 14.23524732 -19 7 C-18.01 6.67 -17.02 6.34 -16 6 C-16.03480469 7.12148437 -16.03480469 7.12148437 -16.0703125 8.265625 C-16.08835938 9.25046875 -16.10640625 10.2353125 -16.125 11.25 C-16.14820313 12.22453125 -16.17140625 13.1990625 -16.1953125 14.203125 C-15.99645953 17.05069951 -15.55438946 18.63037132 -14 21 C-11.13879744 22.43060128 -9.15989415 22.38692581 -6 22 C-3.0098728 19.0098728 -2.74852437 16.00003226 -2.5625 11.9375 C-2.66071806 8.45851278 -2.73953544 7.34728608 -4.875 4.5 C-5.57625 4.005 -6.2775 3.51 -7 3 C-7.66 2.34 -8.32 1.68 -9 1 C-5.92805092 -0.53597454 -3.39755707 -0.2265038 0 0 Z " fill="#060304" transform="translate(213,114)"/>
<path d="M0 0 C0.33 0.66 0.66 1.32 1 2 C0.00390625 4.3828125 0.00390625 4.3828125 -1.4375 7.125 C-2.14712891 8.49011719 -2.14712891 8.49011719 -2.87109375 9.8828125 C-3.24363281 10.58148438 -3.61617187 11.28015625 -4 12 C-5.051875 11.95875 -6.10375 11.9175 -7.1875 11.875 C-12.2099458 11.84809404 -17.02144718 12.75722326 -21.94921875 13.66015625 C-24.99265765 13.99918209 -27.05051784 13.70729833 -30 13 C-36.43543363 12.42893763 -41.93413462 13.26578138 -48.06640625 15.24609375 C-57.07942701 17.56235608 -66.73896226 17.41105016 -75.99267578 17.72241211 C-77.66457039 17.7824831 -79.33616748 17.85149944 -81.00732422 17.92944336 C-97.88749923 18.71268083 -97.88749923 18.71268083 -106 14 C-110.02535797 12.8601818 -113.88787212 12.86607031 -118.0625 12.875 C-119.27035156 12.87242187 -120.47820312 12.86984375 -121.72265625 12.8671875 C-124.40741374 12.97598578 -126.44660161 13.30361862 -129 14 C-137.56937799 14.66754213 -146.74707533 14.01454326 -154.5625 10.3125 C-157.64851732 7.38473998 -158.61703668 4.99522736 -160 1 C-154.37938524 1.60654116 -148.91282408 2.5812103 -143.37548828 3.71386719 C-96.72993801 13.20133528 -45.78088037 15.26029346 0 0 Z " fill="#95190F" transform="translate(253,168)"/>
<path d="M0 0 C-1.03850505 14.27944441 -3.00265932 26.09682981 -14 36 C-15.29639189 37.32873948 -16.58853888 38.66164342 -17.875 40 C-19.87868193 42.01336156 -21.59769624 43.39846416 -24 45 C-24.99 45 -25.98 45 -27 45 C-27.27153013 38.85924168 -26.42054226 33.96017405 -24.5625 28.125 C-24.33240234 27.36703125 -24.10230469 26.6090625 -23.86523438 25.828125 C-22.19774266 20.39548531 -22.19774266 20.39548531 -21 18 C-21.99 17.67 -22.98 17.34 -24 17 C-24.15654421 13.81449745 -24.0169651 11.03860374 -23 8 C-20.39876613 5.70174221 -17.47960568 4.63225288 -14.25 3.4375 C-13.43789063 3.09654297 -12.62578125 2.75558594 -11.7890625 2.40429688 C-7.78999922 0.78578348 -4.3872353 -0.49044297 0 0 Z " fill="#8D1B14" transform="translate(295,154)"/>
<path d="M0 0 C8.09834149 1.00427982 17.16701386 2.22403521 24 7 C27.28184778 11.33409351 27.99320383 16.7834682 29 22 C29.55303048 23.59417048 30.13116471 25.18020221 30.75 26.75 C32.42933069 31.71209012 32.71801007 36.79777194 33 42 C32.01 42.495 32.01 42.495 31 43 C29.82780457 42.21654285 28.66236332 41.42297164 27.5 40.625 C26.8503125 40.18414062 26.200625 39.74328125 25.53125 39.2890625 C24.77328125 38.65097656 24.77328125 38.65097656 24 38 C24 37.34 24 36.68 24 36 C23.34 36 22.68 36 22 36 C20.51953125 34.56640625 20.51953125 34.56640625 18.8125 32.5625 C17.88824219 31.4796875 17.88824219 31.4796875 16.9453125 30.375 C14.37627754 27.23850752 11.91202517 24.02908622 9.48046875 20.78515625 C8.10781932 18.88599673 8.10781932 18.88599673 6 18 C5.22216797 16.23413086 5.22216797 16.23413086 4.4921875 13.96484375 C4.22792969 13.15595703 3.96367188 12.34707031 3.69140625 11.51367188 C3.42199219 10.66353516 3.15257812 9.81339844 2.875 8.9375 C2.59785156 8.08349609 2.32070313 7.22949219 2.03515625 6.34960938 C1.35002352 4.23514801 0.67198166 2.1186703 0 0 Z " fill="#8F1B14" transform="translate(51,156)"/>
<path d="M0 0 C2.58455285 1.89533875 2.96275506 2.88826517 4 6 C4.39537729 11.23874905 3.80588657 14.53136583 1 19 C-2.24826674 21.16551116 -3.23094157 21.55156953 -7 21 C-9.79035429 18.7522146 -10.85910005 17.42269984 -12 14 C-12.52482505 8.61045043 -12.55572612 4.3762783 -9 0 C-5.85000502 -1.57499749 -3.36459118 -0.70833498 0 0 Z " fill="#FBF8F7" transform="translate(141,117)"/>
<path d="M0 0 C2.76320877 2.8459777 3.43138567 4.94959737 3.4375 8.875 C3.27663336 13.60308038 2.44480384 16.55519616 -1 20 C-4 20.625 -4 20.625 -7 20 C-9.30275556 18.1329009 -10.67823871 16.64352259 -12 14 C-12.54930958 8.62310433 -12.54185108 4.35920132 -9 0 C-5.8168485 -1.59157575 -3.38676935 -0.77242108 0 0 Z " fill="#FBFAF9" transform="translate(208,117)"/>
<path d="M0 0 C2.67075004 0.27901014 2.67075004 0.27901014 6.41015625 0.21875 C7.75179704 0.5168924 9.08866798 0.84118192 10.41015625 1.21875 C9.75015625 1.54875 9.09015625 1.87875 8.41015625 2.21875 C8.41015625 2.87875 8.41015625 3.53875 8.41015625 4.21875 C3.24295224 5.07550385 -1.69764997 5.35342581 -6.9296875 5.31640625 C-7.69664444 5.3149913 -8.46360138 5.31357635 -9.25379944 5.31211853 C-11.67835565 5.30656766 -14.10281594 5.29402463 -16.52734375 5.28125 C-18.18163928 5.27622864 -19.83593628 5.27166685 -21.49023438 5.26757812 C-25.52347387 5.25661438 -29.55664261 5.23938424 -33.58984375 5.21875 C-33.58984375 4.55875 -33.58984375 3.89875 -33.58984375 3.21875 C-32.26984375 3.21875 -30.94984375 3.21875 -29.58984375 3.21875 C-29.58984375 2.55875 -29.58984375 1.89875 -29.58984375 1.21875 C-19.55073029 -1.2202537 -10.22641086 -1.08439114 0 0 Z " fill="#851E18" transform="translate(191.58984375,179.78125)"/>
<path d="M0 0 C5.75 1.875 5.75 1.875 8 3 C8 3.99 8 4.98 8 6 C8.99 6.33 9.98 6.66 11 7 C11 4.69 11 2.38 11 0 C12.98 0.66 14.96 1.32 17 2 C6.375 14.75 6.375 14.75 0 19 C-0.99 19 -1.98 19 -3 19 C-3.38614349 12.1781317 -2.00865708 6.50422293 0 0 Z " fill="#8B201C" transform="translate(271,180)"/>
<path d="M0 0 C-0.33 2.64 -0.66 5.28 -1 8 C-2.0725 7.979375 -3.145 7.95875 -4.25 7.9375 C-9.85856733 7.92741265 -15.42011337 8.47921058 -21 9 C-21.66 8.01 -22.32 7.02 -23 6 C-23.33 6.33 -23.66 6.66 -24 7 C-26.33297433 7.04092937 -28.66705225 7.04241723 -31 7 C-30.67 6.34 -30.34 5.68 -30 5 C-27.77856445 4.31396484 -27.77856445 4.31396484 -24.86328125 3.7109375 C-23.28450195 3.38222656 -23.28450195 3.38222656 -21.67382812 3.046875 C-20.56458984 2.82515625 -19.45535156 2.6034375 -18.3125 2.375 C-17.22259766 2.14554688 -16.13269531 1.91609375 -15.00976562 1.6796875 C-9.9000917 0.63473897 -5.23452702 -0.12695048 0 0 Z " fill="#8E1D15" transform="translate(250,172)"/>
<path d="M0 0 C1.11375 0.495 1.11375 0.495 2.25 1 C5.13883312 2.22782871 5.13883312 2.22782871 9 2 C8.835 2.721875 8.67 3.44375 8.5 4.1875 C8.69721088 7.07642683 8.69721088 7.07642683 10.78125 8.4453125 C12.82254045 9.70314992 14.8769233 10.88633253 17 12 C17.33 11.67 17.66 11.34 18 11 C17.59070014 8.94603274 17.59070014 8.94603274 17 7 C17.66 6.67 18.32 6.34 19 6 C19.99 7.485 19.99 7.485 21 9 C21.33 9.33 21.66 9.66 22 10 C22.23363881 11.84891946 22.41303635 13.70488031 22.5625 15.5625 C22.68818359 17.08037109 22.68818359 17.08037109 22.81640625 18.62890625 C22.87699219 19.41136719 22.93757813 20.19382813 23 21 C22.34 21.33 21.68 21.66 21 22 C19.82780457 21.21654285 18.66236332 20.42297164 17.5 19.625 C16.8503125 19.18414062 16.200625 18.74328125 15.53125 18.2890625 C15.0259375 17.86367187 14.520625 17.43828125 14 17 C14 16.34 14 15.68 14 15 C13.34 15 12.68 15 12 15 C7.39398102 10.53320578 3.6235736 5.2706525 0 0 Z " fill="#841E1C" transform="translate(61,177)"/>
<path d="M0 0 C1.4606285 2.64738916 2 3.89448334 2 7 C1.01 7.495 1.01 7.495 0 8 C-0.92256171 9.80986629 -1.78826134 11.648891 -2.625 13.5 C-5.53508519 19.49219512 -9.00623196 24.54609878 -14 29 C-14.66 29 -15.32 29 -16 29 C-16 28.01 -16 27.02 -16 26 C-15.34 26 -14.68 26 -14 26 C-13.67 25.01 -13.34 24.02 -13 23 C-12.34 23 -11.68 23 -11 23 C-11.33 22.01 -11.66 21.02 -12 20 C-12.66 19.67 -13.32 19.34 -14 19 C-13.0919838 17.86800647 -12.17316174 16.74467637 -11.25 15.625 C-10.73953125 14.99851563 -10.2290625 14.37203125 -9.703125 13.7265625 C-7.91416587 11.91298467 -6.26312041 11.11238122 -4 10 C-3.19471111 7.94999129 -3.19471111 7.94999129 -3 6 C-3.66 5.67 -4.32 5.34 -5 5 C-4.360625 4.731875 -3.72125 4.46375 -3.0625 4.1875 C-0.66868314 3.11332248 -0.66868314 3.11332248 0 0 Z " fill="#D5371B" transform="translate(270,166)"/>
<path d="M0 0 C7.12369455 0.77012914 14.09761444 2.11665639 21.125 3.5 C23.41914215 3.94857528 25.71340901 4.39651333 28.0078125 4.84375 C29.51819092 5.14055664 29.51819092 5.14055664 31.05908203 5.44335938 C34.03309627 6.00626428 37.01265155 6.51331277 40 7 C40 7.33 40 7.66 40 8 C35.38 8 30.76 8 26 8 C26 7.34 26 6.68 26 6 C24.906875 6.020625 23.81375 6.04125 22.6875 6.0625 C17.42699641 6.07194435 12.22830356 5.53820772 7 5 C7 6.32 7 7.64 7 9 C4.60510457 8.25675659 3.29222384 7.52942646 2.06640625 5.30859375 C1.32780077 3.55926499 0.65950315 1.78065851 0 0 Z " fill="#96190C" transform="translate(93,169)"/>
<path d="M0 0 C-0.33 0.66 -0.66 1.32 -1 2 C-3.0625 2.625 -3.0625 2.625 -5 3 C-4.67 4.32 -4.34 5.64 -4 7 C-4.66 7 -5.32 7 -6 7 C-7.68630119 10.51033129 -7.68630119 10.51033129 -7.625 14.3125 C-7.41875 14.869375 -7.2125 15.42625 -7 16 C-9.33524782 13.74259377 -11.18705073 11.7194239 -13 9 C-12.625 5.3125 -12.625 5.3125 -12 2 C-7.82262526 0.40861915 -4.46839215 -0.21278058 0 0 Z " fill="#D53616" transform="translate(42,107)"/>
<path d="M0 0 C1.60379341 -0.05416188 3.20811406 -0.09286638 4.8125 -0.125 C5.70582031 -0.14820312 6.59914063 -0.17140625 7.51953125 -0.1953125 C10 0 10 0 13 2 C13.58563126 6.67839516 12.45709972 9.84929922 10.5 14.0625 C8.7018646 17.94347557 7.68457277 20.70230401 8 25 C9.98 25 11.96 25 14 25 C10.86501708 26.85776765 8.62528568 27.20140476 5 27 C3.54195869 21.04633133 3.54195869 21.04633133 4.82421875 18.1171875 C5.87821074 16.40861101 6.93890884 14.70417671 8 13 C8 11.68 8 10.36 8 9 C8.99 9 9.98 9 11 9 C11 6.69 11 4.38 11 2 C7.7 2 4.4 2 1 2 C0.67 1.34 0.34 0.68 0 0 Z " fill="#C1371C" transform="translate(289,81)"/>
<path d="M0 0 C2.97 0 5.94 0 9 0 C9 0.33 9 0.66 9 1 C7.783125 1.28875 6.56625 1.5775 5.3125 1.875 C2.08483229 2.68763974 -0.99273841 3.54193378 -4 5 C-4.33 5.66 -4.66 6.32 -5 7 C-5.99 7.33 -6.98 7.66 -8 8 C-12.70147027 16.66391344 -12.99281918 25.53410888 -11 35 C-12.32 34.67 -13.64 34.34 -15 34 C-14.22095672 17.1070615 -14.22095672 17.1070615 -12 10 C-11.34 10 -10.68 10 -10 10 C-10 8.68 -10 7.36 -10 6 C-9.34 6 -8.68 6 -8 6 C-8 5.01 -8 4.02 -8 3 C-5.36 2.67 -2.72 2.34 0 2 C0 1.34 0 0.68 0 0 Z " fill="#C13922" transform="translate(203,113)"/>
<path d="M0 0 C6.02798199 -1.2055964 10.89823152 2.17688701 16 5 C15.67 5.99 15.34 6.98 15 8 C14.67 7.34 14.34 6.68 14 6 C13.01 6 12.02 6 11 6 C11 5.34 11 4.68 11 4 C9.52168779 3.80587819 8.04230684 3.61987869 6.5625 3.4375 C5.73878906 3.33308594 4.91507812 3.22867188 4.06640625 3.12109375 C3.04353516 3.06115234 3.04353516 3.06115234 2 3 C0.26312034 4.73687966 0.86779634 6.96171192 0.86328125 9.2734375 C0.86714844 9.96695313 0.87101562 10.66046875 0.875 11.375 C0.87113281 12.06078125 0.86726563 12.7465625 0.86328125 13.453125 C0.86934954 16.57222638 1.00658545 19.01975635 2 22 C0.68 21.67 -0.64 21.34 -2 21 C-2.05390357 18.06225537 -2.0936255 15.12549768 -2.125 12.1875 C-2.14175781 11.35412109 -2.15851563 10.52074219 -2.17578125 9.66210938 C-2.18222656 8.85966797 -2.18867187 8.05722656 -2.1953125 7.23046875 C-2.20578613 6.49207764 -2.21625977 5.75368652 -2.22705078 4.99291992 C-2 3 -2 3 0 0 Z " fill="#C63317" transform="translate(86,38)"/>
<path d="M0 0 C0.66 0.33 1.32 0.66 2 1 C2 1.66 2 2.32 2 3 C1.34 3 0.68 3 0 3 C0 5.97 0 8.94 0 12 C9.57 12 19.14 12 29 12 C29 12.33 29 12.66 29 13 C22.30139078 14.02250405 15.7684802 14.11756273 9 14.0625 C7.93910156 14.05798828 6.87820312 14.05347656 5.78515625 14.04882812 C3.19004402 14.03713843 0.59505291 14.02075276 -2 14 C-2.08658837 8.76140358 -1.98109499 4.95273747 0 0 Z " fill="#BA3721" transform="translate(181,203)"/>
<path d="M0 0 C0.33 0 0.66 0 1 0 C1.13277344 0.62648438 1.26554688 1.25296875 1.40234375 1.8984375 C1.57894531 2.71570313 1.75554687 3.53296875 1.9375 4.375 C2.19853516 5.59316406 2.19853516 5.59316406 2.46484375 6.8359375 C2.92330693 9.029463 2.92330693 9.029463 4 11 C2.68 11 1.36 11 0 11 C-0.38434943 15.80436782 -0.47968712 19.09024857 1.8125 23.4375 C3.92293305 26.145559 3.92293305 26.145559 7 28 C6.67 28.66 6.34 29.32 6 30 C1.19319813 26.26137632 -2.57262793 23.31003862 -3.3984375 16.9140625 C-3.35286101 10.51816108 -3.14337511 5.6318804 0 0 Z " fill="#250504" transform="translate(128,125)"/>
<path d="M0 0 C1.32 0 2.64 0 4 0 C2.62111791 3.97317055 0.78436958 6.81606204 -1.875 10.0625 C-2.55304688 10.89910156 -3.23109375 11.73570312 -3.9296875 12.59765625 C-5.88009074 14.86086001 -7.75222606 17.02978519 -10 19 C-10.99 19 -11.98 19 -13 19 C-13 17.02 -13 15.04 -13 13 C-9.535 12.505 -9.535 12.505 -6 12 C-6.33 11.01 -6.66 10.02 -7 9 C-6.21625 8.608125 -5.4325 8.21625 -4.625 7.8125 C-1.63695151 5.74932366 -0.99209884 4.42725053 0 1 C0 0.67 0 0.34 0 0 Z " fill="#C7351A" transform="translate(298,204)"/>
<path d="M0 0 C3.3674103 1.68370515 4.89294371 3.4204562 7 6.5 C6.34 7.16 5.68 7.82 5 8.5 C3.68 7.84 2.36 7.18 1 6.5 C1 5.84 1 5.18 1 4.5 C-1.31 4.17 -3.62 3.84 -6 3.5 C-5.938125 4.923125 -5.938125 4.923125 -5.875 6.375 C-5.85515492 11.20727658 -6.94225804 15.80627004 -8 20.5 C-8.66 20.17 -9.32 19.84 -10 19.5 C-9.60396583 16.72476056 -9.18430884 13.95677851 -8.75 11.1875 C-8.64042969 10.40181641 -8.53085938 9.61613281 -8.41796875 8.80664062 C-7.48235152 3.0205867 -7.48235152 3.0205867 -5.078125 0.42578125 C-3 -0.5 -3 -0.5 0 0 Z " fill="#C93519" transform="translate(117,23.5)"/>
<path d="M0 0 C-0.33 0.33 -0.66 0.66 -1 1 C0.98 1.66 2.96 2.32 5 3 C4.34 4.32 3.68 5.64 3 7 C2.071875 6.360625 1.14375 5.72125 0.1875 5.0625 C-5.12849626 2.04938471 -11.43818201 1.02327815 -17.37890625 2.65234375 C-19.2644636 3.40587219 -21.13363043 4.20012733 -23 5 C-23.99 4.67 -24.98 4.34 -26 4 C-24 2 -24 2 -21.375 1.875 C-20.59125 1.91625 -19.8075 1.9575 -19 2 C-19 1.34 -19 0.68 -19 0 C-16.39619004 -0.19476139 -13.79224467 -0.38108614 -11.1875 -0.5625 C-10.44951172 -0.61857422 -9.71152344 -0.67464844 -8.95117188 -0.73242188 C-5.63211484 -0.95769724 -3.18767436 -1.06255812 0 0 Z " fill="#BC3520" transform="translate(155,113)"/>
<path d="M0 0 C0 0.33 0 0.66 0 1 C-1.98 1.33 -3.96 1.66 -6 2 C-6 3.32 -6 4.64 -6 6 C-6.9793879 7.02019573 -7.97895449 8.02149805 -9 9 C-9 9.99 -9 10.98 -9 12 C-11.0625 14.6875 -11.0625 14.6875 -14 17 C-17.8125 17.3125 -17.8125 17.3125 -21 17 C-21.33 15.68 -21.66 14.36 -22 13 C-21.401875 13.33 -20.80375 13.66 -20.1875 14 C-17.94613529 15.20787988 -17.94613529 15.20787988 -15 15 C-14.5978125 13.92492187 -14.5978125 13.92492187 -14.1875 12.828125 C-12.98716019 9.96942097 -11.59193518 7.40853175 -10 4.75 C-9.484375 3.87859375 -8.96875 3.0071875 -8.4375 2.109375 C-5.88702349 -1.63317206 -4.09313702 -0.96942719 0 0 Z " fill="#C3351E" transform="translate(176,12)"/>
<path d="M0 0 C-0.75796875 0.38478516 -0.75796875 0.38478516 -1.53125 0.77734375 C-3.66362052 2.03391924 -5.31930449 3.17500235 -7 5 C-7.4053611 7.31760803 -7.25101353 9.3008834 -7.046875 11.640625 C-6.96973631 15.52327264 -8.4620786 18.4755968 -10 22 C-10.33 22 -10.66 22 -11 22 C-10.67 19.36 -10.34 16.72 -10 14 C-10.66 13.67 -11.32 13.34 -12 13 C-11.67 12.01 -11.34 11.02 -11 10 C-10.67 10 -10.34 10 -10 10 C-9.67 7.03 -9.34 4.06 -9 1 C-3.375 -1.125 -3.375 -1.125 0 0 Z " fill="#C13921" transform="translate(254,196)"/>
<path d="M0 0 C0.94746094 0.07863281 1.89492187 0.15726562 2.87109375 0.23828125 C5.48396109 0.67439118 7.28527075 1.36853743 9.5625 2.6875 C6.5625 4.6875 6.5625 4.6875 4 4.625 C3.195625 4.645625 2.39125 4.66625 1.5625 4.6875 C0.5725 6.1725 0.5725 6.1725 -0.4375 7.6875 C-6.1875 2.9375 -6.1875 2.9375 -8.4375 0.6875 C-5.21543541 -0.38652153 -3.34936324 -0.30448757 0 0 Z " fill="#170406" transform="translate(145.4375,114.3125)"/>
<path d="M0 0 C0.33 0 0.66 0 1 0 C1.33 3.3 1.66 6.6 2 10 C2.33 9.34 2.66 8.68 3 8 C4.32 8.33 5.64 8.66 7 9 C1.375 14 1.375 14 -2 14 C-2.1799928 8.78020872 -1.97094808 4.92737019 0 0 Z " fill="#7F2421" transform="translate(270,185)"/>
<path d="M0 0 C2 1 2 1 4.1875 2.9375 C7.46468622 5.34076989 9.99284452 6.34428365 14 7 C16.44146006 5.77661725 16.44146006 5.77661725 18 4 C18.66 4.33 19.32 4.66 20 5 C19.360625 5.598125 18.72125 6.19625 18.0625 6.8125 C15.79689611 8.90810337 15.79689611 8.90810337 15 12 C14.44699219 11.71769531 13.89398438 11.43539062 13.32421875 11.14453125 C11.71974907 10.35443105 10.09536665 9.60396236 8.45703125 8.88671875 C7.58433594 8.49097656 6.71164063 8.09523437 5.8125 7.6875 C4.93207031 7.29949219 4.05164063 6.91148437 3.14453125 6.51171875 C1 5 1 5 0.19921875 2.33203125 C0.13347656 1.56246094 0.06773438 0.79289063 0 0 Z " fill="#C5341B" transform="translate(100,179)"/>
<path d="M0 0 C0.99 0.495 0.99 0.495 2 1 C2 1.99 2 2.98 2 4 C2.99 4.33 3.98 4.66 5 5 C6.1875 8.0625 6.1875 8.0625 7 11 C14.37822 12.79283851 19.68628168 13.15814639 27 11 C26 13 26 13 23 14.1875 C17.5847918 15.59144287 12.42695762 14.93768817 7.25 12.9375 C4.02682325 10.16198669 1.81944584 6.84019208 0 3 C0 2.01 0 1.02 0 0 Z " fill="#2A0101" transform="translate(191,143)"/>
<path d="M0 0 C0.66 0 1.32 0 2 0 C3.625 2 3.625 2 5 4 C3.90425231 7.1776683 3.04911842 7.97178303 0.0625 9.6875 C-3 11 -3 11 -6 12 C-7.00916033 13.76591887 -7.00916033 13.76591887 -8 16 C-10 19.25 -10 19.25 -12 22 C-12.66 22 -13.32 22 -14 22 C-11.56889733 14.48568264 -6.47313225 10.07567586 0 6 C0.99 6 1.98 6 3 6 C2.01 4.02 1.02 2.04 0 0 Z " fill="#C0311A" transform="translate(35,123)"/>
<path d="M0 0 C0.99 0.33 1.98 0.66 3 1 C1.75 3.5 1.75 3.5 0 6 C-1.32 6 -2.64 6 -4 6 C-4.33 6.66 -4.66 7.32 -5 8 C-6.4589426 7.52269162 -7.91713496 7.04308958 -9.375 6.5625 C-10.18710938 6.29566406 -10.99921875 6.02882812 -11.8359375 5.75390625 C-14 5 -14 5 -16 4 C-16 3.34 -16 2.68 -16 2 C-15.13375 2.350625 -14.2675 2.70125 -13.375 3.0625 C-9.66206414 4.09387107 -7.68140594 4.04039733 -4 3 C-2.66209359 2.00612666 -1.32781878 1.0073108 0 0 Z " fill="#CB361D" transform="translate(246,180)"/>
<path d="M0 0 C3.52709749 3.52709749 4.26615683 8.68086465 5.6875 13.375 C6.02072266 14.42945313 6.35394531 15.48390625 6.69726562 16.5703125 C7.00728516 17.58609375 7.31730469 18.601875 7.63671875 19.6484375 C8.06537231 21.04328369 8.06537231 21.04328369 8.50268555 22.46630859 C9.01452791 25.07401604 8.87113495 26.52069977 8 29 C5.84566675 24.22353543 4.20934541 19.58522186 2.875 14.5 C2.54242188 13.2521875 2.20984375 12.004375 1.8671875 10.71875 C1.03038292 7.13029072 0.4610267 3.6505788 0 0 Z " fill="#BA351D" transform="translate(58,176)"/>
<path d="M0 0 C0.66 0 1.32 0 2 0 C0.10129204 6.07586548 -4.22461765 11.81015499 -9 16 C-9.66 16 -10.32 16 -11 16 C-11 15.01 -11 14.02 -11 13 C-10.34 13 -9.68 13 -9 13 C-8.67 12.01 -8.34 11.02 -8 10 C-7.34 10 -6.68 10 -6 10 C-5.9175 9.4225 -5.835 8.845 -5.75 8.25 C-4.7924861 5.3774583 -3.18571625 4.04910899 -1 2 C-0.67 1.34 -0.34 0.68 0 0 Z " fill="#CA3920" transform="translate(265,179)"/>
<path d="M0 0 C2.74277578 3.19990508 4.6302836 6.00499382 6 10 C3.525 9.01 3.525 9.01 1 8 C1.33 9.32 1.66 10.64 2 12 C-0.31 11.67 -2.62 11.34 -5 11 C-3.625 8.5 -3.625 8.5 -2 6 C-1.34 6 -0.68 6 0 6 C0 4.02 0 2.04 0 0 Z " fill="#D43518" transform="translate(177,15)"/>
<path d="M0 0 C3.34218632 -0.37992882 4.66954796 -0.23536171 7.45703125 1.75 C8.23433594 2.4925 9.01164063 3.235 9.8125 4 C10.60269531 4.7425 11.39289063 5.485 12.20703125 6.25 C13.09455078 7.11625 13.09455078 7.11625 14 8 C13.01 8.33 12.02 8.66 11 9 C10.34 7.68 9.68 6.36 9 5 C7.906875 5.061875 6.81375 5.12375 5.6875 5.1875 C2 5 2 5 0.0625 3.5 C-0.4634375 2.7575 -0.4634375 2.7575 -1 2 C-0.67 1.34 -0.34 0.68 0 0 Z " fill="#CE3116" transform="translate(154,186)"/>
<path d="M0 0 C2.94235387 5.88470774 3.10946769 10.54140615 3 17 C-1.75 16.25 -1.75 16.25 -4 14 C-3.67 13.34 -3.34 12.68 -3 12 C-2.01 12 -1.02 12 0 12 C0 8.04 0 4.08 0 0 Z " fill="#C4391D" transform="translate(67,205)"/>
<path d="M0 0 C0.66 0 1.32 0 2 0 C2 3.96 2 7.92 2 12 C2.66 12 3.32 12 4 12 C4.99 14.97 5.98 17.94 7 21 C3.15116482 17.55630536 1.05641779 15.09001297 0 10 C-0.14527067 6.65877469 -0.11887127 3.34160335 0 0 Z " fill="#BF3A25" transform="translate(105,202)"/>
<path d="M0 0 C1.79258558 0.08693141 3.58415144 0.19510504 5.375 0.3125 C6.87160156 0.39951172 6.87160156 0.39951172 8.3984375 0.48828125 C9.25695312 0.65714844 10.11546875 0.82601562 11 1 C13.2024745 4.30371174 13.5345879 5.16878669 13 9 C11 12.3125 11 12.3125 9 15 C8.375 13.1875 8.375 13.1875 8 11 C8.66 10.01 9.32 9.02 10 8 C10.66 8 11.32 8 12 8 C11.34 7.01 10.68 6.02 10 5 C10 4.01 10 3.02 10 2 C6.7 2 3.4 2 0 2 C0 1.34 0 0.68 0 0 Z " fill="#BF3B23" transform="translate(303,107)"/>
<path d="M0 0 C2.375 0.3125 2.375 0.3125 5 1 C7 4 7 4 7 7 C4.5625 6.625 4.5625 6.625 2 6 C1.67 5.34 1.34 4.68 1 4 C-0.98 4.66 -2.96 5.32 -5 6 C-3.35 4.02 -1.7 2.04 0 0 Z " fill="#C93216" transform="translate(200,14)"/>
<path d="M0 0 C0.33 0.66 0.66 1.32 1 2 C-0.44384314 4.81974072 -2.24979932 7.35335507 -4 10 C0.62 10 5.24 10 10 10 C10 10.33 10 10.66 10 11 C4.39 11 -1.22 11 -7 11 C-7 7.22089522 -6.00296038 6.53893899 -3.5 3.8125 C-2.8503125 3.09707031 -2.200625 2.38164062 -1.53125 1.64453125 C-1.0259375 1.10183594 -0.520625 0.55914062 0 0 Z " fill="#BF3825" transform="translate(207,227)"/>
<path d="M0 0 C0 1.32 0 2.64 0 4 C-0.66 3.67 -1.32 3.34 -2 3 C-3.32860925 2.64830932 -4.66158328 2.31229724 -6 2 C-5.67 3.32 -5.34 4.64 -5 6 C-5.99 6 -6.98 6 -8 6 C-8 5.34 -8 4.68 -8 4 C-9.1446875 4.5259375 -9.1446875 4.5259375 -10.3125 5.0625 C-13 6 -13 6 -16 5 C-14.27656245 4.15488176 -12.54595947 3.32436646 -10.8125 2.5 C-9.36810547 1.80390625 -9.36810547 1.80390625 -7.89453125 1.09375 C-5.01077307 0.00407079 -3.04645139 -0.22277524 0 0 Z " fill="#9A180B" transform="translate(295,154)"/>
<path d="M0 0 C0.33 0 0.66 0 1 0 C1.04898438 0.88042969 1.09796875 1.76085937 1.1484375 2.66796875 C1.22320312 3.82941406 1.29796875 4.99085938 1.375 6.1875 C1.44460937 7.33605469 1.51421875 8.48460937 1.5859375 9.66796875 C1.97509574 12.79959117 2.6809851 15.15285809 4 18 C2.0625 17.25 2.0625 17.25 0 16 C-1.15346731 12.80076049 -1.13401065 9.68698753 -1.125 6.3125 C-1.12757812 5.33925781 -1.13015625 4.36601562 -1.1328125 3.36328125 C-1 1 -1 1 0 0 Z " fill="#C73C28" transform="translate(124,132)"/>
<path d="M0 0 C2.33944736 0.28730055 4.6739143 0.61936779 7 1 C1.05940488 4.42726641 -3.81146077 4.07503205 -10.2421875 2.47265625 C-10.82226562 2.31667969 -11.40234375 2.16070312 -12 2 C-12 1.67 -12 1.34 -12 1 C-11.21753906 1.01160156 -10.43507813 1.02320313 -9.62890625 1.03515625 C-8.61699219 1.04417969 -7.60507813 1.05320313 -6.5625 1.0625 C-5.04849609 1.07990234 -5.04849609 1.07990234 -3.50390625 1.09765625 C-1.05978933 1.28612676 -1.05978933 1.28612676 0 0 Z " fill="#831F1F" transform="translate(117,178)"/>
<path d="M0 0 C0 0.66 0 1.32 0 2 C-0.99 2.495 -0.99 2.495 -2 3 C-0.68 5.64 0.64 8.28 2 11 C0.68 11 -0.64 11 -2 11 C-2.309375 10.360625 -2.61875 9.72125 -2.9375 9.0625 C-3.8345163 7.06389179 -3.8345163 7.06389179 -5 6 C-5.04063832 4.33382885 -5.042721 2.66611905 -5 1 C-3 0 -3 0 0 0 Z " fill="#DC3822" transform="translate(96,167)"/>
<path d="M0 0 C4.55555556 1.55555556 4.55555556 1.55555556 6 3 C6.04080783 4.99958364 6.04254356 7.00045254 6 9 C5.01 9 4.02 9 3 9 C3 7.35 3 5.7 3 4 C-0.76624671 2.74458443 -2.37188934 3.62938042 -6 5 C-2.25 1.125 -2.25 1.125 0 0 Z " fill="#BB341B" transform="translate(229,23)"/>
<path d="M0 0 C0.33 0 0.66 0 1 0 C1.33 3.3 1.66 6.6 2 10 C1.01 10.495 1.01 10.495 0 11 C-2.31 9.35 -4.62 7.7 -7 6 C-6.67 5.34 -6.34 4.68 -6 4 C-4.02 4.66 -2.04 5.32 0 6 C0 4.02 0 2.04 0 0 Z " fill="#782621" transform="translate(82,188)"/>
<path d="M0 0 C1.485 0.99 1.485 0.99 3 2 C3.99 2.33 4.98 2.66 6 3 C6 5.64 6 8.28 6 11 C4.29115995 9.37660195 2.62553283 7.70680947 1 6 C1 5.34 1 4.68 1 4 C0.34 4 -0.32 4 -1 4 C-0.67 2.68 -0.34 1.36 0 0 Z " fill="#CD341B" transform="translate(82,180)"/>
<path d="M0 0 C0.66 0 1.32 0 2 0 C1.46105575 4.59808129 0.23428472 7.86784369 -2.0625 11.875 C-2.61035156 12.84179688 -3.15820312 13.80859375 -3.72265625 14.8046875 C-4.14417969 15.52914062 -4.56570313 16.25359375 -5 17 C-6.1171875 13.28125 -6.1171875 13.28125 -5.0625 10.75 C-4.711875 10.1725 -4.36125 9.595 -4 9 C-3.34 9 -2.68 9 -2 9 C-1.855625 8.071875 -1.71125 7.14375 -1.5625 6.1875 C-1 3 -1 3 0 0 Z " fill="#BF331F" transform="translate(323,163)"/>
<path d="M0 0 C-0.33 0.66 -0.66 1.32 -1 2 C-3.64860427 2.59355614 -6.29197322 2.74209269 -9 3 C-8.67 3.99 -8.34 4.98 -8 6 C-8.99 6 -9.98 6 -11 6 C-11.66 6.99 -12.32 7.98 -13 9 C-12.67 6.69 -12.34 4.38 -12 2 C-7.82262526 0.40861915 -4.46839215 -0.21278058 0 0 Z " fill="#C34028" transform="translate(42,107)"/>
<path d="M0 0 C3.48179777 3.48179777 3.939735 7.8348766 4.1875 12.625 C4.02589602 15.53387161 3.68497079 18.17449549 3 21 C2.67 21 2.34 21 2 21 C1.18447923 14.00982196 0.55789568 7.01524148 0 0 Z " fill="#BE3D27" transform="translate(323,142)"/>
<path d="M0 0 C2.875 0.3125 2.875 0.3125 6 1 C6.66 1.99 7.32 2.98 8 4 C10.55183404 5.20450304 10.55183404 5.20450304 13 6 C12.67 6.99 12.34 7.98 12 9 C10.37021552 8.07084243 8.74631725 7.13135466 7.125 6.1875 C5.76761719 5.40439453 5.76761719 5.40439453 4.3828125 4.60546875 C2 3 2 3 0 0 Z " fill="#C53929" transform="translate(91,193)"/>
<path d="M0 0 C4.98012761 1.50912958 8.24259942 4.55661849 12 8 C10 9 10 9 7.6875 8.375 C4.44752587 6.71733882 2.38816066 4.72932647 0 2 C0 1.34 0 0.68 0 0 Z " fill="#C92F16" transform="translate(308,128)"/>
<path d="M0 0 C0 3.77910478 -0.99703962 4.46106101 -3.5 7.1875 C-4.1496875 7.90292969 -4.799375 8.61835938 -5.46875 9.35546875 C-5.9740625 9.89816406 -6.479375 10.44085938 -7 11 C-7.66 10.34 -8.32 9.68 -9 9 C-8.67 8.01 -8.34 7.02 -8 6 C-6.35 5.67 -4.7 5.34 -3 5 C-2.814375 4.0409375 -2.814375 4.0409375 -2.625 3.0625 C-2.41875 2.381875 -2.2125 1.70125 -2 1 C-1.34 0.67 -0.68 0.34 0 0 Z " fill="#C13218" transform="translate(242,218)"/>
<path d="M0 0 C0.99 0.33 1.98 0.66 3 1 C2.67 1.33 2.34 1.66 2 2 C3.98 2.66 5.96 3.32 8 4 C7.34 5.32 6.68 6.64 6 8 C-0.875 4.375 -0.875 4.375 -2 1 C-1.34 0.67 -0.68 0.34 0 0 Z " fill="#CE391C" transform="translate(152,112)"/>
<path d="M0 0 C0 0.66 0 1.32 0 2 C-0.86625 2.804375 -0.86625 2.804375 -1.75 3.625 C-4.68603386 6.72414685 -6.24095641 10.14507468 -8 14 C-9 12 -9 12 -8.328125 9.6875 C-7.97234375 8.800625 -7.6165625 7.91375 -7.25 7 C-6.90453125 6.113125 -6.5590625 5.22625 -6.203125 4.3125 C-4.7288824 1.47889085 -3.33226875 0 0 0 Z " fill="#BE3520" transform="translate(144,14)"/>
<path d="M0 0 C-5.75 4 -5.75 4 -8 4 C-8 5.98 -8 7.96 -8 10 C-8.33 10 -8.66 10 -9 10 C-9 7.03 -9 4.06 -9 1 C-3.375 -1.125 -3.375 -1.125 0 0 Z " fill="#C72F19" transform="translate(254,196)"/>
<path d="M0 0 C0.66 0 1.32 0 2 0 C1.67 2.31 1.34 4.62 1 7 C0.34 7 -0.32 7 -1 7 C-1.33 8.65 -1.66 10.3 -2 12 C-2.66 12 -3.32 12 -4 12 C-3.53680089 7.27536912 -2.90108294 3.82942948 0 0 Z " fill="#2F0C0A" transform="translate(195,120)"/>
<path d="M0 0 C5.65116279 2.30232558 5.65116279 2.30232558 7 5 C6.01 5 5.02 5 4 5 C4 4.34 4 3.68 4 3 C-0.06756833 2.29599779 -3.03020896 1.97079492 -7 3 C-7.66 2.34 -8.32 1.68 -9 1 C-5.92805092 -0.53597454 -3.39755707 -0.2265038 0 0 Z " fill="#230405" transform="translate(213,114)"/>
<path d="M0 0 C1.15518918 0.90484792 2.29885406 1.8244206 3.4375 2.75 C4.07558594 3.26046875 4.71367187 3.7709375 5.37109375 4.296875 C7.18810554 6.19667629 7.60423197 7.43586908 8 10 C3.15544041 7.70984456 3.15544041 7.70984456 1 6 C0.0625 2.75 0.0625 2.75 0 0 Z " fill="#C83119" transform="translate(145,15)"/>
<path d="M0 0 C6.875 3.625 6.875 3.625 8 7 C8.66 7.33 9.32 7.66 10 8 C9.67 8.66 9.34 9.32 9 10 C7.49147143 8.90751403 5.99337169 7.80061501 4.5 6.6875 C3.6646875 6.07261719 2.829375 5.45773438 1.96875 4.82421875 C1.3190625 4.22222656 0.669375 3.62023437 0 3 C0 2.01 0 1.02 0 0 Z " fill="#C43318" transform="translate(113,223)"/>
<path d="M0 0 C0.33 0 0.66 0 1 0 C1.34615998 5.65394631 0.43425238 9.03006806 -2 14 C-2.66 14 -3.32 14 -4 14 C-3.67 11.36 -3.34 8.72 -3 6 C-2.01 6 -1.02 6 0 6 C0 4.02 0 2.04 0 0 Z " fill="#C72F15" transform="translate(300,84)"/>
<path d="M0 0 C0.33 1.32 0.66 2.64 1 4 C2.32 4.33 3.64 4.66 5 5 C0.38 5.66 -4.24 6.32 -9 7 C-8.67 6.34 -8.34 5.68 -8 5 C-7.030625 4.87625 -6.06125 4.7525 -5.0625 4.625 C-1.88417172 4.3508355 -1.88417172 4.3508355 -0.625 1.9375 C-0.41875 1.298125 -0.2125 0.65875 0 0 Z " fill="#7A221D" transform="translate(241,174)"/>
<path d="M0 0 C2.64 0.33 5.28 0.66 8 1 C8 1.33 8 1.66 8 2 C6.35 2 4.7 2 3 2 C3.33 3.32 3.66 4.64 4 6 C4.66 6 5.32 6 6 6 C6.33 6.99 6.66 7.98 7 9 C4.60510457 8.25675659 3.29222384 7.52942646 2.06640625 5.30859375 C1.32780077 3.55926499 0.65950315 1.78065851 0 0 Z " fill="#9C1606" transform="translate(93,169)"/>
<path d="M0 0 C0.8971875 0.5259375 0.8971875 0.5259375 1.8125 1.0625 C0.35868103 1.75949552 -1.10072953 2.44483866 -2.5625 3.125 C-3.37460937 3.50785156 -4.18671875 3.89070312 -5.0234375 4.28515625 C-5.73757813 4.54167969 -6.45171875 4.79820312 -7.1875 5.0625 C-7.8475 4.7325 -8.5075 4.4025 -9.1875 4.0625 C-8.1975 3.7325 -7.2075 3.4025 -6.1875 3.0625 C-5.8575 2.0725 -5.5275 1.0825 -5.1875 0.0625 C-2.1875 -0.9375 -2.1875 -0.9375 0 0 Z " fill="#D73920" transform="translate(283.1875,155.9375)"/>
<path d="M0 0 C0.33 0 0.66 0 1 0 C1.37730162 6.16259312 0.96435433 10.52734586 -2 16 C-2.66 16.33 -3.32 16.66 -4 17 C-3.50746057 14.78357258 -2.92485227 12.8309176 -2 10.75 C-0.69394082 7.15833726 -0.38647835 3.80037045 0 0 Z " fill="#220000" transform="translate(227,134)"/>
<path d="M0 0 C2 2 2 2 2 6 C0.125 5.75 0.125 5.75 -2 5 C-3.25 2.9375 -3.25 2.9375 -4 1 C-2.125 0.375 -2.125 0.375 0 0 Z " fill="#D23017" transform="translate(63,213)"/>
<path d="M0 0 C-1.3697164 3.99500618 -3.25722422 6.80009492 -6 10 C-5.38909774 3.52443609 -5.38909774 3.52443609 -3.5625 1.0625 C-2 0 -2 0 0 0 Z " fill="#C2311C" transform="translate(267,179)"/>
<path d="M0 0 C1.32 0 2.64 0 4 0 C4.33 3.96 4.66 7.92 5 12 C3.20931427 9.3139714 2.33944209 7.3373411 1.375 4.3125 C1.11460938 3.50425781 0.85421875 2.69601563 0.5859375 1.86328125 C0.39257812 1.24839844 0.19921875 0.63351563 0 0 Z " fill="#9C1606" transform="translate(51,156)"/>
<path d="M0 0 C0.56203125 0.16371094 1.1240625 0.32742187 1.703125 0.49609375 C4.13059056 1.02864997 6.26889681 1.09898681 8.75 1.0625 C9.94882812 1.04896484 9.94882812 1.04896484 11.171875 1.03515625 C12.07679688 1.01775391 12.07679688 1.01775391 13 1 C13 1.33 13 1.66 13 2 C9.37 2.66 5.74 3.32 2 4 C2 3.34 2 2.68 2 2 C1.34 2 0.68 2 0 2 C0 1.34 0 0.68 0 0 Z " fill="#CC311C" transform="translate(260,59)"/>
<path d="M0 0 C3.96 1.98 3.96 1.98 8 4 C8 4.66 8 5.32 8 6 C6.02 5.34 4.04 4.68 2 4 C2 4.66 2 5.32 2 6 C1.34 5.67 0.68 5.34 0 5 C0 3.35 0 1.7 0 0 Z " fill="#C13822" transform="translate(131,153)"/>
<path d="M0 0 C0.66 0.33 1.32 0.66 2 1 C0.02 3.97 0.02 3.97 -2 7 C-3.32 6.67 -4.64 6.34 -6 6 C-4.02 4.02 -2.04 2.04 0 0 Z " fill="#C84427" transform="translate(191,189)"/>
<path d="M0 0 C0 0.99 0 1.98 0 3 C-1.65 3.66 -3.3 4.32 -5 5 C-5.33 3.35 -5.66 1.7 -6 0 C-3.50907189 -1.24546405 -2.58919267 -0.7767578 0 0 Z " fill="#891B12" transform="translate(277,190)"/>
<path d="M0 0 C0.66 0 1.32 0 2 0 C1 4 1 4 0 8 C-0.99 8 -1.98 8 -3 8 C-1.125 2.25 -1.125 2.25 0 0 Z " fill="#D83720" transform="translate(254,168)"/>
<path d="M0 0 C0.33 0.66 0.66 1.32 1 2 C-2.625 7.75 -2.625 7.75 -6 10 C-5.67 8.68 -5.34 7.36 -5 6 C-4.34 6 -3.68 6 -3 6 C-2.690625 5.195625 -2.38125 4.39125 -2.0625 3.5625 C-1 1 -1 1 0 0 Z " fill="#220000" transform="translate(162,145)"/>
<path d="M0 0 C1.80330533 3.60661066 2.46599103 6.08393425 3 10 C1.68 9.67 0.36 9.34 -1 9 C-0.67 6.03 -0.34 3.06 0 0 Z " fill="#C33D24" transform="translate(189,138)"/>
<path d="M0 0 C2.56616632 3.84924948 2.55097676 6.4349304 3 11 C2.34 11 1.68 11 1 11 C-1.42857143 3.57142857 -1.42857143 3.57142857 0 0 Z " fill="#280301" transform="translate(224,123)"/>
<path d="M0 0 C1.70884005 1.62339805 3.37446717 3.29319053 5 5 C5 5.66 5 6.32 5 7 C4.34 7 3.68 7 3 7 C3 6.34 3 5.68 3 5 C2.34 5 1.68 5 1 5 C0.67 5.66 0.34 6.32 0 7 C0 4.69 0 2.38 0 0 Z " fill="#1C0000" transform="translate(156,118)"/>
<path d="M0 0 C2.97 0.33 5.94 0.66 9 1 C9 1.99 9 2.98 9 4 C6.03 3.01 3.06 2.02 0 1 C0 0.67 0 0.34 0 0 Z " fill="#D53823" transform="translate(53,155)"/>
<path d="M0 0 C2.79872437 2.52788007 4.45773019 4.20411134 5 8 C4.34 8 3.68 8 3 8 C0.25624329 5.04518508 0 4.22528092 0 0 Z " fill="#C13721" transform="translate(137,215)"/>
<path d="M0 0 C1.32 0.33 2.64 0.66 4 1 C4 1.66 4 2.32 4 3 C4.99 3.33 5.98 3.66 7 4 C6.67 4.99 6.34 5.98 6 7 C4.02 4.69 2.04 2.38 0 0 Z " fill="#BA301F" transform="translate(48,204)"/>
</svg>
